<?xml version="1.0" encoding="UTF-8" standalone="no"?>
<svg
   xmlns:dc="http://purl.org/dc/elements/1.1/"
   xmlns:cc="http://creativecommons.org/ns#"
   xmlns:rdf="http://www.w3.org/1999/02/22-rdf-syntax-ns#"
   xmlns:svg="http://www.w3.org/2000/svg"
   xmlns="http://www.w3.org/2000/svg"
   xmlns:xlink="http://www.w3.org/1999/xlink"
   xmlns:sodipodi="http://sodipodi.sourceforge.net/DTD/sodipodi-0.dtd"
   xmlns:inkscape="http://www.inkscape.org/namespaces/inkscape"
   version="1.1"
   preserveAspectRatio="none"
   x="0px"
   y="0px"
   width="174.16"
   height="262.04999"
   viewBox="0 0 174.16 262.04999"
   id="svg2"
   inkscape:version="0.48.4 r9939"
   sodipodi:docname="chest.svg">
  <metadata
     id="metadata24">
    <rdf:RDF>
      <cc:Work
         rdf:about="">
        <dc:format>image/svg+xml</dc:format>
        <dc:type
           rdf:resource="http://purl.org/dc/dcmitype/StillImage" />
      </cc:Work>
    </rdf:RDF>
  </metadata>
  <sodipodi:namedview
     pagecolor="#ffffff"
     bordercolor="#666666"
     borderopacity="1"
     objecttolerance="10"
     gridtolerance="10"
     guidetolerance="10"
     inkscape:pageopacity="0"
     inkscape:pageshadow="2"
     inkscape:window-width="640"
     inkscape:window-height="480"
     id="namedview22"
     showgrid="false"
     fit-margin-top="0"
     fit-margin-left="0"
     fit-margin-right="0"
     fit-margin-bottom="0"
     inkscape:zoom="0.59"
     inkscape:cx="133.25"
     inkscape:cy="110.5"
     inkscape:window-x="2367"
     inkscape:window-y="166"
     inkscape:window-maximized="0"
     inkscape:current-layer="svg2" />
  <defs
     id="defs4">
    <g
       id="Layer4_0_FILL">
      <path
         d="m -413.8,191.45 0,0.15 0.1,0.25 -0.1,-0.4 m 148.5,25.35 -0.05,0.35 0.1,-0.3 -0.05,-0.05 M -330,-25.9 -403,-39.05 -420.5,6.1 q -5.8709,16.854102 -9.8,34.05 -3.2,15.05 -3.2,26.8 0,35.75 7.2,71.1 2.95,14.55 6.95,28.35 1.9,6.35 4.1,12.7 l 2.25,6.4 q 3.45,7.9 6.85,15.9 1.65,3.9 3.2,7.95 1.5,3.95 3,7.95 l 131.2,-0.45 0.5,-0.7 2.85,-52.35 q 0,-0.95 0.05,-1.85 0,-1.15 0,-2.3 0.1,-7.9 -0.6,-15.75 -0.65,-6.95 -1.3,-13.9 -0.65,-6.9 0.1,-13.7 0.25,-2 0.8,-3.9 1.1,-3.65 1,-7.7 -0.2,-7.65 -2.6,-15 -2.2,-6.6 -4.9,-13 -3.15,-7.35 -6.9,-14.3 -2.55,-4.7 -5.1,-9.45 -2.7,-5 -5.5,-9.9 -3.55,-6.15 -7.2,-12.15 -3.95,-6.55 -7.95,-13 -3.63437,-5.9 -7.3,-11.8 -1.55,-2.65 -3.3,-5.1 -9.25,-12.55 -13.9,-26.9 z"
         id="path7"
         inkscape:connector-curvature="0"
         style="fill:#d1b172;stroke:none" />
      <path
         d="m -265.3,216.8 0.05,0.05 0.05,-0.55 -0.1,0.5 M -403,-39.05 l -2.1,-0.4 -18.5,45.55 q -0.40156,1.1978516 -0.8,2.4 -5.25,15.65 -8.95,31.65 -3.15,15 -3.15,26.8 0,36.05 7.25,71.7 3,14.95 7.15,29.1 2.05,6.55 4.3,13.05 l 4,10.8 0,-0.15 -1.2,-6.1 0.9,0.75 1.1,-0.6 -2.25,-6.4 q -2.2,-6.35 -4.1,-12.7 -4,-13.8 -6.95,-28.35 -7.2,-35.35 -7.2,-71.1 0,-11.75 3.2,-26.8 3.9291,-17.195898 9.8,-34.05 l 17.5,-45.15 m 76.25,13.45 -3.25,-0.3 q 4.65,14.35 13.9,26.9 1.75,2.45 3.3,5.1 3.66563,5.9 7.3,11.8 4,6.45 7.95,13 3.65,6 7.2,12.15 2.8,4.9 5.5,9.9 2.55,4.75 5.1,9.45 3.75,6.95 6.9,14.3 2.7,6.4 4.9,13 2.4,7.35 2.6,15 0.1,4.05 -1,7.7 -0.55,1.9 -0.8,3.9 -0.75,6.8 -0.1,13.7 0.65,6.95 1.3,13.9 0.7,7.85 0.6,15.75 0,1.15 0,2.3 -0.05,0.9 -0.05,1.85 l -2.85,52.35 1.85,-3.45 1.25,2.6 2.7,-50.85 q 0.05,-1.2 0.1,-2.4 0.05,-5.35 -0.15,-10.7 -0.25,-6.7 -1.1,-13.45 -0.9,-7.35 -1.05,-14.55 -0.1,-6.85 1.35,-13.55 0.7,-3.2 0.6,-6.45 -0.1,-3.3 -0.75,-6.5 -0.95,-4.5 -2.25,-8.9 -2.05,-6.95 -4.9,-13.4 -2.8,-6.45 -6.1,-12.8 -3.15,-6.05 -6.45,-11.95 -2.15,-3.9 -4.35,-7.7 -2.2,-3.85 -4.4,-7.65 -2.3,-3.85 -4.6,-7.65 -4,-6.55 -8,-13.05 -2.39062,-3.825 -4.75,-7.65 -2.4,-4 -4.75,-7.95 -6.9,-11.65 -12.75,-23.75 z"
         id="path9"
         inkscape:connector-curvature="0"
         style="fill:#c29741;stroke:none" />
      <path
         d="m -265.2,216.3 0.05,-1 -1.25,-2.6 -1.85,3.45 -0.5,0.7 -131.2,0.45 q -1.5,-4 -3,-7.95 -1.55,-4.05 -3.2,-7.95 -3.4,-8 -6.85,-15.9 l -1.1,0.6 -0.9,-0.75 1.2,6.1 0.1,0.4 11.65,27.7 1.1,-0.2 0.65,0.6 132.15,-0.2 0.45,-0.35 1.55,-0.05 0.8,-2.2 0.05,-0.35 0.1,-0.5 m -64.8,-242.2 3.25,0.3 -1.6,-3.05 -75,-13.45 -1.75,2.65 2.1,0.4 73,13.15 z"
         id="path11"
         inkscape:connector-curvature="0"
         style="fill:#b69a43;stroke:none" />
    </g>
    <path
       id="Layer0_0_1_STROKES"
       d="m 1308.9,851.4 -1455.35,0 0,-1184.05 1455.35,0 0,1184.05 z"
       inkscape:connector-curvature="0"
       style="fill:none;stroke:#666666;stroke-width:3;stroke-linecap:round;stroke-linejoin:round" />
  </defs>
  <g
     transform="translate(436.5,42.1)"
     id="g14">
    <use
       xlink:href="#Layer4_0_FILL"
       id="use16"
       x="0"
       y="0"
       width="550"
       height="400" />
  </g>
  <g
     id="g18"
     transform="translate(-141.75,-48.45)">
    <use
       xlink:href="#Layer0_0_1_STROKES"
       id="use20"
       x="0"
       y="0"
       width="550"
       height="400" />
  </g>
</svg>
