<?xml version="1.0" encoding="UTF-8" standalone="no"?>
<svg
   xmlns:dc="http://purl.org/dc/elements/1.1/"
   xmlns:cc="http://creativecommons.org/ns#"
   xmlns:rdf="http://www.w3.org/1999/02/22-rdf-syntax-ns#"
   xmlns:svg="http://www.w3.org/2000/svg"
   xmlns="http://www.w3.org/2000/svg"
   xmlns:xlink="http://www.w3.org/1999/xlink"
   xmlns:sodipodi="http://sodipodi.sourceforge.net/DTD/sodipodi-0.dtd"
   xmlns:inkscape="http://www.inkscape.org/namespaces/inkscape"
   version="1.1"
   preserveAspectRatio="none"
   x="0px"
   y="0px"
   width="65.985092"
   height="183.93973"
   viewBox="0 0 65.985092 183.93973"
   id="svg2"
   inkscape:version="0.48.4 r9939"
   sodipodi:docname="foot.svg">
  <metadata
     id="metadata24">
    <rdf:RDF>
      <cc:Work
         rdf:about="">
        <dc:format>image/svg+xml</dc:format>
        <dc:type
           rdf:resource="http://purl.org/dc/dcmitype/StillImage" />
      </cc:Work>
    </rdf:RDF>
  </metadata>
  <sodipodi:namedview
     pagecolor="#ffffff"
     bordercolor="#666666"
     borderopacity="1"
     objecttolerance="10"
     gridtolerance="10"
     guidetolerance="10"
     inkscape:pageopacity="0"
     inkscape:pageshadow="2"
     inkscape:window-width="640"
     inkscape:window-height="480"
     id="namedview22"
     showgrid="false"
     fit-margin-top="0"
     fit-margin-left="0"
     fit-margin-right="0"
     fit-margin-bottom="0"
     inkscape:zoom="0.59"
     inkscape:cx="59.737761"
     inkscape:cy="125.68851"
     inkscape:window-x="2198"
     inkscape:window-y="342"
     inkscape:window-maximized="0"
     inkscape:current-layer="svg2" />
  <defs
     id="defs4">
    <g
       id="Layer4_0_FILL">
      <path
         d="m -323.3,808.6 q 0,-0.10664 0,-0.2 -0.21777,0.11367 -0.45,0.2 0.17813,0 0.35,0 l 0.1,0 m 169.95,54.7 q 0.4,-4.5 0.15,-9.15 -0.25,0 -0.45,0 -1.4,-0.35 -2.7,-0.65 0,0.6 0.05,1.15 0,0.6 0,1.2 0.1,3.6 -0.25,6.9 -0.15,1.35 -0.5,2.55 -0.05,0.25 -0.15,0.5 -0.05,0.15 -0.2,0.35 -0.15,0.3 -0.3,0.6 -7.9,-0.45 -15.8,0.3 -7.85,0.5 -15.75,0.25 -7.35,-0.05 -14.65,-0.1 -8.4,-0.1 -16.8,-0.25 -8.25,-0.2 -16.5,-0.55 -7.8,-0.35 -15.6,0.2 -8.35,0.45 -16.9,1.2 -6.2,0.6 -12.05,1.35 -7.85,0.95 -15.75,1.1 -8.55,0.3 -16.8,-0.65 -3.85,-0.35 -7.2,-1.15 -2.6,-0.8 -4.75,-2.25 -6.75,-4.05 -7.35,-11.3 -0.8,-7.95 0.95,-15.8 1.35,-6.5 3.8,-12.5 2.65,-6.35 5,-13.15 0.4,-0.95 0.45,-1.85 -0.6,0 -1,-0.4 -0.5,-0.45 -0.5,-1.05 0,-0.56465 0.35,-1 -0.32031,0.22871 -2.05,2.1 -0.36504,1.59629 -0.9,3.25 -2.6,6.9 -5.15,13.95 -2.7,7.25 -3.9,14.9 -0.65,4.4 -0.6,8.6 0,3.45 0.75,6.55 0.35,1.2 0.95,2.4 0.45,1.05 1.1,1.95 2.3,3.6 6,6 3.6,2.15 7.95,2.85 17.25,2.75 34.75,0.9 12.1,-1.4 24.5,-2.5 8.85,-0.55 17.6,-0.85 5.7,0.2 11.5,0.3 5.6,0.25 11.2,0.35 18.35,0.35 36.9,0.5 2.45,-0.05 4.75,-0.15 10.25,-1 20.5,-0.4 0.85,0.05 1.6,-0.15 1.5,-0.5 2.25,-1.75 1.2,-2.1 1.5,-4.65 z"
         id="path7"
         inkscape:connector-curvature="0"
         style="fill:#c29741;stroke:none" />
      <path
         d="m -322.8,808.15 q -0.25547,0.12031 -0.5,0.25 0,0.0934 0,0.2 l 13.75,-0.45 -13.25,0 m 166.45,45.35 q -0.3,-0.05 -0.5,-0.1 -81,-18.45 -107.85,-43.7 l -58.6,1.9 q -0.05,0 -0.1,0 -0.05,0.9 -0.45,1.85 -2.35,6.8 -5,13.15 -2.45,6 -3.8,12.5 -1.75,7.85 -0.95,15.8 0.6,7.25 7.35,11.3 2.15,1.45 4.75,2.25 3.35,0.8 7.2,1.15 8.25,0.95 16.8,0.65 7.9,-0.15 15.75,-1.1 5.85,-0.75 12.05,-1.35 8.55,-0.75 16.9,-1.2 7.8,-0.55 15.6,-0.2 8.25,0.35 16.5,0.55 8.4,0.15 16.8,0.25 7.3,0.05 14.65,0.1 7.9,0.25 15.75,-0.25 7.9,-0.75 15.8,-0.3 0.15,-0.3 0.3,-0.6 0.15,-0.2 0.2,-0.35 0.1,-0.25 0.15,-0.5 0.35,-1.2 0.5,-2.55 0.35,-3.3 0.25,-6.9 0,-0.6 0,-1.2 -0.05,-0.55 -0.05,-1.15 z"
         id="path9"
         inkscape:connector-curvature="0"
         style="fill:#d1b172;stroke:none" />
      <path
         d="m -156.85,853.4 q 0.2,0.05 0.5,0.1 1.3,0.3 2.7,0.65 0.2,0 0.45,0 0.0828,0 0.15,0 -0.46113,-1.54336 -0.8,-1.95 -0.29824,-0.3877 -1.5,-1.55 -0.37285,-0.0613 -0.75,-0.15 -79.46074,-18.11309 -106.15,-42.7 -1.54219,-0.33184 -3.3,-0.85 -0.62305,-0.18574 -1.2,-0.4 0.009,0.1125 0,0.2 l -42.8,1.4 -13.75,0.45 -0.1,0 q -0.17187,0 -0.35,0 -0.40117,0.27695 -0.8,0.55 -0.35,0.43535 -0.35,1 0,0.6 0.5,1.05 0.4,0.4 1,0.4 0.05,0 0.1,0 l 58.6,-1.9 q 26.85,25.25 107.85,43.7 z"
         id="path11"
         inkscape:connector-curvature="0"
         style="fill:#b69a43;stroke:none" />
    </g>
    <path
       id="Layer0_0_1_STROKES"
       d="m 1308.9,851.4 -1455.35,0 0,-1184.05 1455.35,0 0,1184.05 z"
       inkscape:connector-curvature="0"
       style="fill:none;stroke:#666666;stroke-width:3;stroke-linecap:round;stroke-linejoin:round" />
  </defs>
  <g
     transform="matrix(0.02448539,-0.99937086,0.99937086,0.02448539,-799.51109,-173.86791)"
     id="g14">
    <use
       xlink:href="#Layer4_0_FILL"
       id="use16"
       x="0"
       y="0"
       width="550"
       height="400" />
  </g>
  <g
     id="g18"
     transform="translate(-215.26224,-141.74878)">
    <use
       xlink:href="#Layer0_0_1_STROKES"
       id="use20"
       x="0"
       y="0"
       width="550"
       height="400" />
  </g>
</svg>
