<?xml version="1.0" encoding="UTF-8" standalone="no"?>
<svg
   xmlns:dc="http://purl.org/dc/elements/1.1/"
   xmlns:cc="http://creativecommons.org/ns#"
   xmlns:rdf="http://www.w3.org/1999/02/22-rdf-syntax-ns#"
   xmlns:svg="http://www.w3.org/2000/svg"
   xmlns="http://www.w3.org/2000/svg"
   xmlns:xlink="http://www.w3.org/1999/xlink"
   xmlns:sodipodi="http://sodipodi.sourceforge.net/DTD/sodipodi-0.dtd"
   xmlns:inkscape="http://www.inkscape.org/namespaces/inkscape"
   version="1.1"
   preserveAspectRatio="none"
   x="0px"
   y="0px"
   width="55.90625"
   height="106.21875"
   viewBox="0 0 55.90625 106.21875"
   id="svg2"
   inkscape:version="0.48.4 r9939"
   sodipodi:docname="funny-connector.svg">
  <metadata
     id="metadata252">
    <rdf:RDF>
      <cc:Work
         rdf:about="">
        <dc:format>image/svg+xml</dc:format>
        <dc:type
           rdf:resource="http://purl.org/dc/dcmitype/StillImage" />
      </cc:Work>
    </rdf:RDF>
  </metadata>
  <sodipodi:namedview
     pagecolor="#ffffff"
     bordercolor="#666666"
     borderopacity="1"
     objecttolerance="10"
     gridtolerance="10"
     guidetolerance="10"
     inkscape:pageopacity="0"
     inkscape:pageshadow="2"
     inkscape:window-width="640"
     inkscape:window-height="480"
     id="namedview250"
     showgrid="false"
     fit-margin-top="0"
     fit-margin-left="0"
     fit-margin-right="0"
     fit-margin-bottom="0"
     inkscape:zoom="0.417193"
     inkscape:cx="-101.10015"
     inkscape:cy="-22.032679"
     inkscape:window-x="2212"
     inkscape:window-y="113"
     inkscape:window-maximized="0"
     inkscape:current-layer="svg2" />
  <defs
     id="defs4">
    <g
       id="Layer4_0_FILL">
      <path
         d="m 965.65,434.5 q -6.6,-4.45 -14.8,-7.05 -6.3,-2 -12.6,-3.6 -12.05,5.15 -21.85,17.55 -25.5,32.3 -16.95,73.5 l -0.2,1.4 q 0.5,-0.2 0.95,-0.4 l 4.05,-13.75 q -1.6,18.6 -4,37.15 -2.15,17 -1.25,34.2 0.9,16.65 4.3,33.15 3.15,15.45 7.2,30.65 2.05,7.45 4.1,14.95 1.2,4.3 2.35,8.6 1.15,4.3 2.25,8.65 1.7,6.65 3.35,13.45 1.25,5.3 2.45,10.85 1.35,6.4 2.65,12.8 1.45,7.4 2.85,14.55 1.45,7.6 2.8,15.25 1.3,7.35 2.3,14.85 0.85,6.45 1,13.2 0.05,1 -0.25,2.05 -1.8,6.95 -3.85,13.45 -1.95,6.1 -2.85,12.7 -1.1,7.95 0.1,15.8 1.05,7.2 7.6,10.9 2.1,1.3 4.55,1.95 3.2,0.6 6.75,0.75 7.85,0.45 15.75,-0.3 7.35,-0.6 14.6,-2 5.45,-1.1 11.2,-2.05 7.85,-1.25 15.65,-2.2 7.25,-1 14.55,-1.1 7.7,-0.15 15.4,-0.4 7.85,-0.35 15.7,-0.75 6.8,-0.35 13.6,-0.7 7.4,-0.25 14.75,-1.2 7.3,-1.2 14.6,-1.2 0.15,-0.3 0.3,-0.6 0.1,-0.2 0.15,-0.35 0.1,-0.25 0.15,-0.5 0.25,-1.25 0.3,-2.6 0.05,-3.3 -0.25,-6.85 -0.2,-2.35 -0.45,-4.7 -4.85,-1.6 -9.65,-3.2 -4.65,-1.6 -9.25,-3.15 -4.4,-1.55 -8.7,-3.2 -5.75,-2.05 -11.5,-3.95 -2.85,-0.95 -5.9,-1.9 -2.4,-0.7 -4.75,-1.4 -5.6,-1.65 -11.2,-3.1 -8.8,-2.3 -17.25,-5 -2.8,-0.8 -5.45,-2.05 -7.15,-3.35 -14.05,-7.65 -0.45,-0.3 -0.7,-0.7 -3.2,-5.75 -5.2,-11.9 -5.45,-16.9 -8.15,-34.55 -1.9,-12.4 -2.75,-24.95 -1.25,-18.9 -0.3,-37.75 0.35,-6.4 0.65,-12.8 0.3,-5.35 0.65,-10.7 1.2,-17.85 2.15,-35.65 1,-19.55 1.35,-39.25 0.3,-15.75 -0.2,-31.4 -0.55,-17.4 -0.35,-34.8 0.2,-16.65 -3.3,-32.9 -0.75,-3.55 -2.85,-6.35 -5.25,-6.95 -12.3,-11.75 z"
         id="path7"
         inkscape:connector-curvature="0"
         style="fill:#d1b172;stroke:none" />
      <path
         d="m 950.85,427.45 q 8.2,2.6 14.8,7.05 7.05,4.8 12.3,11.75 2.1,2.8 2.85,6.35 3.5,16.25 3.3,32.9 -0.2,17.4 0.35,34.8 0.5,15.65 0.2,31.4 -0.35,19.7 -1.35,39.25 -0.95,17.8 -2.15,35.65 -0.35,5.35 -0.65,10.7 -0.3,6.4 -0.65,12.8 -0.95,18.85 0.3,37.75 0.85,12.55 2.75,24.95 2.7,17.65 8.15,34.55 2,6.15 5.2,11.9 0.25,0.4 0.7,0.7 6.9,4.3 14.05,7.65 2.65,1.25 5.45,2.05 8.45,2.7 17.25,5 5.6,1.45 11.2,3.1 2.35,0.7 4.75,1.4 3.05,0.95 5.9,1.9 5.75,1.9 11.5,3.95 4.3,1.65 8.7,3.2 4.6,1.55 9.25,3.15 4.8,1.6 9.65,3.2 0.25,2.35 0.45,4.7 0.3,3.55 0.25,6.85 -0.05,1.35 -0.3,2.6 -0.05,0.25 -0.15,0.5 -0.05,0.15 -0.15,0.35 -0.15,0.3 -0.3,0.6 -7.3,0 -14.6,1.2 -7.35,0.95 -14.75,1.2 -6.8,0.35 -13.6,0.7 -7.85,0.4 -15.7,0.75 -7.7,0.25 -15.4,0.4 -7.3,0.1 -14.55,1.1 -7.8,0.95 -15.65,2.2 -5.75,0.95 -11.2,2.05 -7.25,1.4 -14.6,2 -7.9,0.75 -15.75,0.3 -3.55,-0.15 -6.75,-0.75 -2.45,-0.65 -4.55,-1.95 -6.55,-3.7 -7.6,-10.9 -1.2,-7.85 -0.1,-15.8 0.9,-6.6 2.85,-12.7 2.05,-6.5 3.85,-13.45 0.3,-1.05 0.25,-2.05 -0.15,-6.75 -1,-13.2 -1,-7.5 -2.3,-14.85 -1.35,-7.65 -2.8,-15.25 -1.4,-7.15 -2.85,-14.55 -1.3,-6.4 -2.65,-12.8 -1.2,-5.55 -2.45,-10.85 -1.65,-6.8 -3.35,-13.45 -1.1,-4.35 -2.25,-8.65 -1.15,-4.3 -2.35,-8.6 -2.05,-7.5 -4.1,-14.95 -4.05,-15.2 -7.2,-30.65 -3.4,-16.5 -4.3,-33.15 -0.9,-17.2 1.25,-34.2 2.4,-18.55 4,-37.15 l -4.05,13.75 q -0.45,0.2 -0.95,0.4 l -0.45,3.4 q 0.15,-0.1 0.3,-0.15 -3.25,14.7 -3.8,29.9 -1.15,31.9 6,63.05 2.85,12.45 6.1,24.8 4.1,14.85 8.1,29.75 4.05,15.1 7.25,30.65 2.75,13.15 5.25,26.35 1.8,9.6 3.35,19.2 1.45,9.05 2.3,18.25 0.15,1.4 0,2.85 -0.2,1.7 -0.65,3.4 -2,7.1 -4,14.25 -2.05,7.4 -2.7,15.1 -0.35,4.45 -0.05,8.65 0.2,3.4 1.15,6.45 0.4,1.2 1,2.35 0.5,1 1.15,1.9 2.4,3.5 6,5.65 3.45,1.95 7.55,2.4 16.3,1.75 32.5,-1.1 11.2,-2.1 22.65,-3.9 8.3,-1.05 16.4,-1.85 5.25,-0.15 10.7,-0.35 5.3,-0.1 10.5,-0.3 17.15,-0.75 34.45,-1.7 2.2,-0.2 4.4,-0.4 9.5,-1.6 19.05,-1.6 0.75,0 1.5,-0.25 1.35,-0.55 1.95,-1.85 1.1,-2.15 1.15,-4.7 0.2,-6.45 -1.05,-13 -0.1,-0.55 -0.4,-1 -0.4,-0.6 -0.75,-0.75 -9.65,-3 -19.15,-6.4 -10.2,-3.45 -20.4,-7.1 -2.9,-1 -5.95,-1.9 -5.1,-1.5 -10.1,-2.9 -4.5,-1.3 -9.1,-2.45 -3.4,-0.9 -6.8,-1.75 -3.75,-1 -7.4,-2.25 -2.55,-0.9 -5,-2.1 -2.4,-1.25 -4.8,-2.45 -4.45,-2.5 -8.9,-4.95 -0.85,-1.7 -1.65,-3.45 -2.85,-6.3 -4.8,-13.1 -1.95,-6.85 -3.45,-13.8 -1.6,-7.45 -2.75,-14.85 -1.15,-7.5 -1.85,-14.9 -0.7,-7.25 -1.1,-14.5 -0.4,-6.95 -0.45,-13.9 -0.05,-4.55 0.05,-9.1 0.1,-4.55 0.3,-9.1 0.3,-6.75 0.65,-13.5 1,-15.8 1.95,-31.6 1.1,-17.85 1.9,-35.55 0.85,-19.9 0.55,-39.7 -0.25,-18.35 -0.9,-36.7 -0.6,-15.95 -1.1,-31.75 -0.45,-13.2 -9.15,-21.95 -2.35,-2.4 -5,-4.45 -4.15,-3.2 -9,-5.5 -9.7,-4.75 -19.95,-7.9 -2.35,0.7 -4.55,1.65 6.3,1.6 12.6,3.6 z"
         id="path9"
         inkscape:connector-curvature="0"
         style="fill:#c29741;stroke:none" />
    </g>
    <g
       id="Layer4_1_FILL">
      <path
         d="m 652.15,697.85 q 0.0229,-0.36699 0.05,-0.75 -1.8,2.15 -3.3,4.55 -0.4,6.1 -1.15,12.2 -2.4,18.95 0,37.8 2.35,18.25 11,34.5 9.45,17.85 28.05,25.7 10.4,4.45 22.05,3.25 11.3,-1.05 22.75,-1.75 17.9,-1.35 35.8,-2.8 16.9,-1.35 33.75,-2.65 15.05,-1.25 29.9,-2.55 4.75,-0.45 9.2,-0.8 14.4,-1.25 26,-2.35 0.2,0 0.4,0 18.5,-1.55 37.05,-3.5 19.55,-2.4 38.75,-7.45 6.79902,-1.75605 13.35,-4.4 l 6.45,-3 0.35,-3.95 q -0.31777,-0.18145 -0.65,-0.4 0.3666,-0.14863 0.75,-0.3 l 0.35,-3.85 q 0.34258,-3.48672 0.65,-7 l -4.05,13.75 -3.8,1.55 q -7.45137,2.95605 -15.25,4.95 -17.9,4.5 -36.5,6.6 -18.6,2.45 -37.45,3.95 -0.2,0 -0.4,0.05 -11.55,1.05 -26,2.3 -4.45,0.4 -9.2,0.8 -16.05,1.45 -32.3,2.7 -17.35,1.55 -34.8,2.85 -19.75,1.55 -39.3,3.35 -18.7,2.05 -36.15,-1.85 -4.95,-1.15 -9.2,-4.3 -13.9,-10.35 -20.9,-26.4 -7.75,-17.95 -8.65,-37.4 -0.8,-17.25 1.45,-34.2 0.28184,-2.16836 0.5,-4.35 -0.1916,-2.41191 0.45,-4.85 m 105.6,-22 q 0.91914,0.85723 1.65,1.75 5.17891,2.39473 10.8,3.8 6.15,1.55 12.35,2.25 3.6,0.35 7.2,0.7 20.45293,1.70488 41.3,-1.4 4.75,-0.35 9.2,-0.65 14.65,-1.05 26,-1.55 0.2,0 0.4,0 19.8,-0.75 39.6,-0.3 17.25,0.35 34.45,1.45 17.5,1.2 34.8,3.65 11.2,1.7 22.2,4.5 6.3,1.6 12.6,3.6 8.2,2.6 14.8,7.05 7.05,4.8 12.3,11.75 2.1,2.8 2.85,6.35 1.1553,5.40703 1.9,10.9 0.1357,0.34648 0.2,0.7 1.235,-3.54961 2.5,-7.15 -1.65,-9.95 -8.65,-17 -2.35,-2.4 -5,-4.45 -4.15,-3.2 -9,-5.5 -9.7,-4.75 -19.95,-7.9 -6.35,-1.95 -12.85,-3.3 -16.35,-3.3 -33.05,-4.8 -17.45,-1.85 -35,-2.35 -19.8,-0.7 -39.5,-0.5 -7.6,0.05 -15.2,0.25 -0.2,0 -0.4,0.05 -11.35,0.5 -26,1.55 -4.45,0.25 -9.2,0.65 -19.8,2.05 -39.8,2 -0.93203,0 -1.85,0 -7.25,0.55 -14,-1.8 -6.1,-2.2 -12.6,-3.45 -2.48066,-0.54727 -5.05,-0.85 z"
         id="path12"
         inkscape:connector-curvature="0"
         style="fill:#c29741;stroke:none" />
      <path
         d="m 759.4,677.6 q -0.73086,-0.89277 -1.65,-1.75 -4.91621,-4.74102 -14.9,-7.5 -17.6,-4.85 -40.5,-0.7 -22.9,4.15 -37.65,14.85 -9.75723,7.0543 -12.2,14.25 -0.15625,0.17305 -0.3,0.35 -0.0272,0.38301 -0.05,0.75 -0.6416,2.43809 -0.45,4.85 -0.21816,2.18164 -0.5,4.35 -2.25,16.95 -1.45,34.2 0.9,19.45 8.65,37.4 7,16.05 20.9,26.4 4.25,3.15 9.2,4.3 17.45,3.9 36.15,1.85 19.55,-1.8 39.3,-3.35 17.45,-1.3 34.8,-2.85 16.25,-1.25 32.3,-2.7 4.75,-0.4 9.2,-0.8 14.45,-1.25 26,-2.3 0.2,-0.05 0.4,-0.05 18.85,-1.5 37.45,-3.95 18.6,-2.1 36.5,-6.6 7.79863,-1.99395 15.25,-4.95 l 3.8,-1.55 4.05,-13.75 q -0.30742,3.51328 -0.65,7 l -0.35,3.85 q -0.3834,0.15137 -0.75,0.3 0.33223,0.21855 0.65,0.4 l -0.35,3.95 4.9,-2.15 q 4.60781,1.11172 11.05,0.6 15.55,-1.2 32.75,-11.2 17.25,-9.95 26,-22.85 7.2387,-10.42715 5.4,-17.85 -0.064,-0.35352 -0.2,-0.7 -0.7447,-5.49297 -1.9,-10.9 -0.75,-3.55 -2.85,-6.35 -5.25,-6.95 -12.3,-11.75 -6.6,-4.45 -14.8,-7.05 -6.3,-2 -12.6,-3.6 -11,-2.8 -22.2,-4.5 -17.3,-2.45 -34.8,-3.65 -17.2,-1.1 -34.45,-1.45 -19.8,-0.45 -39.6,0.3 -0.2,0 -0.4,0 -11.35,0.5 -26,1.55 -4.45,0.3 -9.2,0.65 -20.84707,3.10488 -41.3,1.4 -3.6,-0.35 -7.2,-0.7 -6.2,-0.7 -12.35,-2.25 -5.62109,-1.40527 -10.8,-3.8 z"
         id="path14"
         inkscape:connector-curvature="0"
         style="fill:#d1b172;stroke:none" />
    </g>
    <g
       id="Layer4_2_FILL">
      <path
         d="m -160.15,463.4 q 0.65,10.8 1.85,21.6 0.95,8 2.15,15.9 0.2,1.4 0.05,2.65 0,1.95 -0.7,3.5 -0.6,1.25 -1.6,2 -1,0.65 -2.45,0.8 -1.3,0.1 -7.55,1.95 l -0.2,0.1 q -0.45,0.25 -0.85,0.5 -0.45,0.3 -0.85,0.65 -0.15,0.1 -0.25,0.25 -0.25,2.05 -0.65,5.35 -0.25,1.7 -0.4,3.05 -0.55,4.25 -0.55,4.5 -0.1,1.8 -0.25,6.45 0.95,4.15 0.6,8.35 -0.35,3.4 -1.7,6.75 -0.75,1.8 -2.25,3.15 -1.9,1.75 -4.35,1.85 -5.7,-0.4 -11.4,-1.05 -1.55,-0.05 -3.05,-0.05 -2.8,0.05 -5.4,-0.2 -2.9,-0.25 -5.55,-0.8 l -0.05,0 q -2.15,-0.5 -4.15,-1.15 -11.35,-3.75 -18.35,-14.1 -2.85,-8.3 -4.5,-17 -1.3,-7.05 -3.75,-13.65 -0.9,-0.3 -1.8,-0.65 -1.75,-0.75 -3.4,-1.9 -2.3,-0.85 -4.05,-2.75 -5,-5.35 -7.8,-12.25 -0.45,-1.1 -0.75,-2.2 -5.5,-20.5 13.9,-23.95 3.2,-0.6 6.15,1.35 -8.45,-10.95 -18.4,0.7 -8,9.35 -4.9,21.9 0.95,4.05 3,7.95 3,5.7 7.55,10.15 3.35,3.25 7.9,2.75 2.7,10.4 5,20.9 1.6,7.5 5.25,14.25 0.15,0.3 0.35,0.6 6.5,8.8 18,9.8 -1.15,0.6 -2.1,1.45 -2.1,1.7 -3.6,3.75 -5.45,12 -3.75,25.6 0.25,1.8 0.55,3.6 0.95,3.1 3.2,5.8 0.95,1.15 1.55,2.4 2.45,5.05 5.5,9.8 3.05,4.8 6.05,9.65 3.85,6.25 7.7,12.5 4,6.45 7.95,13 3.65,6 7.2,12.15 2.8,4.9 5.5,9.9 2.55,4.75 5.1,9.45 3.75,6.95 6.9,14.3 2.7,6.4 4.9,13 2.4,7.35 2.6,15 0.1,4.05 -1,7.7 -0.55,1.9 -0.8,3.9 -0.75,6.8 -0.1,13.7 0.65,6.95 1.3,13.9 0.7,7.85 0.6,15.75 -0.05,7.3 -0.35,14.55 -0.3,6.5 -0.65,13 -0.45,7.95 -1.1,15.65 -0.65,7.4 -1,15.1 -0.4,7.8 -0.85,15.8 -0.05,1.2 -0.1,2.4 -0.15,2.7 -0.25,5.2 -1.35,15 0.25,29.8 0.25,2.7 0.65,5.45 0.1,0.8 0.4,1.65 -2.95,-0.65 -5.75,-1.6 -8.55,-2.9 -17.3,-3.55 9.25,5.35 19.9,6.95 3.01855,0.51875 6.05,0.9 0.21563,0.0273 0.4,0.05 0.25156,0.0285 0.5,0.05 l 0,-2.9 q -0.25,-0.4 -0.5,-0.8 -1.65,-2.85 -1.75,-6.15 -0.05,-0.2 -0.05,-0.4 -0.4,-14.75 0.2,-29.45 0.1,-2.5 0.25,-5.2 0.4,-7.4 0.85,-14.75 0.45,-6.9 0.9,-14.05 0.4,-6.25 0.8,-12.5 0.5,-7.05 0.8,-14.4 0.3,-7.1 0.55,-14.25 0.3,-7.45 0,-14.85 -0.25,-6.7 -1.1,-13.45 -0.9,-7.35 -1.05,-14.55 -0.1,-6.85 1.35,-13.55 0.7,-3.2 0.6,-6.45 -0.1,-3.3 -0.75,-6.5 -0.95,-4.5 -2.25,-8.9 -2.05,-6.95 -4.9,-13.4 -2.8,-6.45 -6.1,-12.8 -3.15,-6.05 -6.45,-11.95 -2.15,-3.9 -4.35,-7.7 -2.2,-3.85 -4.4,-7.65 -2.3,-3.85 -4.6,-7.65 -4,-6.55 -8,-13.05 -3,-4.8 -5.9,-9.6 -3.7,-6 -7.25,-12 -2.5,-4.15 -4.7,-8.4 -1.5,-2.95 -3.2,-5.65 -0.1,-0.15 -0.2,-0.35 -0.25,-0.55 -0.35,-1.05 -3.05,-15.15 4.35,-28.15 2.1,-2.55 5.35,-3.75 l 14.6,1.75 q 3.15,0.3 6.3,0.6 2.6,0 5.2,-0.15 l 0.1,0 q 1.4,-0.1 2.85,-0.25 1.1,-0.15 2.15,-0.85 6.6,-4.65 5.9,-12.95 l 0,-0.05 q -0.3,-5.55 -1.05,-11.05 -0.6,-4.1 -0.1,-8 0.45,-3.95 1.95,-7.7 4.4,-0.55 8.3,-2.2 1.15,-0.5 2.3,-1.1 0.05,0 0.1,-0.05 0.05,0 0.1,-0.05 1,-0.55 1.95,-1.15 1.15,-0.8 1.5,-2.4 1.2,-5.25 0.4,-10.75 -0.8,-5.75 -1.55,-11.5 -2.2,-17.65 -2.15,-35.3 0.05,-16.1 -3.95,-31.3 l -1.85,0.45 q 1.55,5.5 1.65,11.5 0.25,16.5 1.25,33.05 m -87.55,-84.85 q -20.3,2.8 -36.25,15.45 -15.35,12.1 -21.35,30.6 -5.95,18.35 -0.75,36.95 0.55,1.95 1.15,3.85 7.05,18.6 16.25,36.45 6.25,12.05 4.6,24.8 -0.3,2.15 -0.75,4.3 -0.55,2.15 -1.25,4.3 -2.25,6.7 -3.6,13.7 -2.5,13.35 -7.45,25.85 -1.65,4.15 -3.6,8.25 -7.7,16.3 -13.4,33.5 -5.25,15.65 -8.95,31.65 -3.15,15 -3.15,26.8 0,36.05 7.25,71.7 7.15,35.5 20.75,66.4 0.15,0.45 0.4,0.85 0.1,0.15 0.2,0.3 -0.1,0.35 0,0.75 1.35,5.8 4.6,26.8 0.55,3.6 1.2,7.6 2.7,16.55 3.95,33.2 0.9,12.3 0.2,24.55 -0.4,6.1 -1.15,12.2 -2.4,18.95 0,37.8 2.35,18.25 11,34.5 9.45,17.85 28.05,25.7 10.4,4.45 22.05,3.25 11.3,-1.05 22.75,-1.75 17.9,-1.35 35.8,-2.8 7.2,-0.6 14.4,-1.15 0.25,0 0.5,-0.05 l 0,-2.95 q -0.25,0.05 -0.5,0.05 -8.9,0.75 -17.85,1.4 -19.75,1.55 -39.3,3.35 -18.7,2.05 -36.15,-1.85 -4.95,-1.15 -9.2,-4.3 -13.9,-10.35 -20.9,-26.4 -7.75,-17.95 -8.65,-37.4 -0.8,-17.25 1.45,-34.2 0.65,-5 1,-9.95 0.8,-12.7 -0.65,-25.35 -1.6,-13.95 -3.8,-27.85 -0.6,-4 -1.15,-7.6 -3.4,-21.6 -4.75,-27.5 -0.1,-0.4 -0.35,-0.65 l 0,-0.05 q 0.15,-0.6 -0.15,-1.15 -0.15,-0.3 -0.25,-0.55 -13.45,-30.6 -20.55,-65.8 -7.2,-35.35 -7.2,-71.1 0,-11.75 3.2,-26.8 4.25,-18.6 10.8,-36.8 6.25,-17.4 13.45,-34.6 0.25,-0.6 0.5,-1.2 l 0.05,-0.05 q 6.35,-15.6 9.95,-32.3 1.3,-5.95 2.4,-11.9 l 0,-0.05 q 0.4,-2.15 0.8,-4.3 0.65,-4.05 1.3,-8.1 l 0.3,-0.5 q -1.4,-11.75 -7.15,-22.05 -7.4,-13.15 -12.65,-27.15 -0.75,-1.9 -1.35,-3.8 -2.35,-7.95 -3.35,-16.35 -2.3,-19.45 8.1,-36.15 9.85,-15.85 26.75,-24.15 17.3,-8.5 36.6,-8.6 19.7,-0.15 38.25,5.85 18,5.95 27.65,22.2 3,5.1 4.55,10.65 l 1.8,-0.5 q -0.8,-2.95 -1.7,-5.8 -4.15,-12.85 -15.2,-20.65 -15.8,-11.05 -35,-13.15 -17.25,-2.3 -34.55,-0.2 z"
         id="path17"
         inkscape:connector-curvature="0"
         style="fill:#c29741;stroke:none" />
      <path
         d="m -161.2,418.4 -0.05,-0.05 -1.8,0.5 1.85,-0.45 z"
         id="path19"
         inkscape:connector-curvature="0"
         style="fill:#000000;stroke:none" />
      <path
         d="m -195.25,386 q -18.55,-6 -38.25,-5.85 -19.3,0.1 -36.6,8.6 -16.9,8.3 -26.75,24.15 -10.4,16.7 -8.1,36.15 1,8.4 3.35,16.35 0.6,1.9 1.35,3.8 5.25,14 12.65,27.15 5.75,10.3 7.15,22.05 l -0.3,0.5 q -0.65,4.05 -1.3,8.1 -0.4,2.15 -0.8,4.3 l 0,0.05 q -1.1,5.95 -2.4,11.9 -3.6,16.7 -9.95,32.3 l -0.05,0.05 q -0.25,0.6 -0.5,1.2 -7.2,17.2 -13.45,34.6 -6.55,18.2 -10.8,36.8 -3.2,15.05 -3.2,26.8 0,35.75 7.2,71.1 7.1,35.2 20.55,65.8 0.1,0.25 0.25,0.55 0.3,0.55 0.15,1.15 l 0,0.05 q 0.25,0.25 0.35,0.65 1.35,5.9 4.75,27.5 0.55,3.6 1.15,7.6 2.2,13.9 3.8,27.85 1.45,12.65 0.65,25.35 -0.35,4.95 -1,9.95 -2.25,16.95 -1.45,34.2 0.9,19.45 8.65,37.4 7,16.05 20.9,26.4 4.25,3.15 9.2,4.3 17.45,3.9 36.15,1.85 19.55,-1.8 39.3,-3.35 8.95,-0.65 17.85,-1.4 0.25,0 0.5,-0.05 l 0,-0.1 q 8.68145,-1.5523 15,-17.8 6.9,-17.7 7,-42.75 0,-0.35 0,-0.8 0,-25.5 -7,-43.5 -6.31855,-16.24766 -15,-17.85 -0.24844,-0.0215 -0.5,-0.05 -0.18437,-0.0227 -0.4,-0.05 -3.03145,-0.38125 -6.05,-0.9 -10.65,-1.6 -19.9,-6.95 8.75,0.65 17.3,3.55 2.8,0.95 5.75,1.6 -0.3,-0.85 -0.4,-1.65 -0.4,-2.75 -0.65,-5.45 -1.6,-14.8 -0.25,-29.8 0.1,-2.5 0.25,-5.2 0.05,-1.2 0.1,-2.4 0.45,-8 0.85,-15.8 0.35,-7.7 1,-15.1 0.65,-7.7 1.1,-15.65 0.35,-6.5 0.65,-13 0.3,-7.25 0.35,-14.55 0.1,-7.9 -0.6,-15.75 -0.65,-6.95 -1.3,-13.9 -0.65,-6.9 0.1,-13.7 0.25,-2 0.8,-3.9 1.1,-3.65 1,-7.7 -0.2,-7.65 -2.6,-15 -2.2,-6.6 -4.9,-13 -3.15,-7.35 -6.9,-14.3 -2.55,-4.7 -5.1,-9.45 -2.7,-5 -5.5,-9.9 -3.55,-6.15 -7.2,-12.15 -3.95,-6.55 -7.95,-13 -3.85,-6.25 -7.7,-12.5 -3,-4.85 -6.05,-9.65 -3.05,-4.75 -5.5,-9.8 -0.6,-1.25 -1.55,-2.4 -2.25,-2.7 -3.2,-5.8 -0.3,-1.8 -0.55,-3.6 -1.7,-13.6 3.75,-25.6 1.5,-2.05 3.6,-3.75 0.95,-0.85 2.1,-1.45 -11.5,-1 -18,-9.8 -0.2,-0.3 -0.35,-0.6 -3.65,-6.75 -5.25,-14.25 -2.3,-10.5 -5,-20.9 -4.55,0.5 -7.9,-2.75 -4.55,-4.45 -7.55,-10.15 -2.05,-3.9 -3,-7.95 -3.1,-12.55 4.9,-21.9 9.95,-11.65 18.4,-0.7 -2.95,-1.95 -6.15,-1.35 -19.4,3.45 -13.9,23.95 0.3,1.1 0.75,2.2 2.8,6.9 7.8,12.25 1.75,1.9 4.05,2.75 1.65,1.15 3.4,1.9 0.9,0.35 1.8,0.65 2.45,6.6 3.75,13.65 1.65,8.7 4.5,17 7,10.35 18.35,14.1 2,0.65 4.15,1.15 l 0.05,0 q 2.65,0.55 5.55,0.8 2.6,0.25 5.4,0.2 1.5,0 3.05,0.05 5.7,0.65 11.4,1.05 2.45,-0.1 4.35,-1.85 1.5,-1.35 2.25,-3.15 1.35,-3.35 1.7,-6.75 0.35,-4.2 -0.6,-8.35 0.15,-4.65 0.25,-6.45 0,-0.25 0.55,-4.5 0.15,-1.35 0.4,-3.05 0.4,-3.3 0.65,-5.35 0.1,-0.15 0.25,-0.25 0.4,-0.35 0.85,-0.65 0.4,-0.25 0.85,-0.5 l 0.2,-0.1 q 6.25,-1.85 7.55,-1.95 1.45,-0.15 2.45,-0.8 1,-0.75 1.6,-2 0.7,-1.55 0.7,-3.5 0.15,-1.25 -0.05,-2.65 -1.2,-7.9 -2.15,-15.9 -1.2,-10.8 -1.85,-21.6 -1,-16.55 -1.25,-33.05 -0.1,-6 -1.65,-11.5 -1.55,-5.55 -4.55,-10.65 -9.65,-16.25 -27.65,-22.2 z"
         id="path21"
         inkscape:connector-curvature="0"
         style="fill:#d1b172;stroke:none" />
    </g>
    <g
       id="Layer3_0_FILL">
      <path
         d="m 471.2,597.5 0,14.8 21.2,0 0,-14.8 -21.2,0 z"
         id="path24"
         inkscape:connector-curvature="0"
         style="fill:#b71e06;stroke:none" />
    </g>
    <g
       id="Layer3_1_FILL">
      <path
         d="m 515.1,528.8 -12.3,1.7 16.85,119.15 -52,7.4 q -6.25,7.15 1.75,12.25 l 51.1,-7.25 q 13.65,-1.85 11.45,-14.1 L 515.1,528.8 z"
         id="path27"
         inkscape:connector-curvature="0"
         style="fill:#b71e06;stroke:none" />
    </g>
    <g
       id="Layer3_2_MEMBER_0_MEMBER_0_FILL">
      <path
         d="m 442.75,678 q -7.85,1.9 -15.7,-0.1 -1.5,13.65 9.6,22.75 3.75,-7.4 10.25,-12 L 442.75,678 z"
         id="path30"
         inkscape:connector-curvature="0"
         style="fill:#b71e06;stroke:none" />
    </g>
    <g
       id="Layer3_2_MEMBER_0_MEMBER_1_FILL">
      <path
         d="m 448.05,671.6 11.1,2.6 q 2.9,-7.5 9,-12.85 -10.35,-8.95 -24.15,-5 3.95,7.3 4.05,15.25 z"
         id="path33"
         inkscape:connector-curvature="0"
         style="fill:#b71e06;stroke:none" />
    </g>
    <g
       id="Layer3_2_MEMBER_0_MEMBER_2_FILL">
      <path
         d="m 476.75,685.65 q -8.3,-0.2 -15.25,-4.1 l -7.8,8.35 q 5.05,6.3 6.65,14.2 13,-4.5 16.4,-18.45 z"
         id="path36"
         inkscape:connector-curvature="0"
         style="fill:#b71e06;stroke:none" />
    </g>
    <g
       id="Layer3_2_MEMBER_1_FILL">
      <path
         d="m 425.2,653.15 q -11,11 -11,26.6 0,15.6 11,26.6 11,11 26.6,11 15.6,0 26.6,-11 11,-11 11,-26.6 0,-15.6 -11,-26.6 -11,-11 -26.6,-11 -15.6,0 -26.6,11 m -5.6,26.65 q 0,-13.4 9.45,-22.8 9.4,-9.45 22.75,-9.45 13.4,0 22.8,9.45 9.45,9.4 9.45,22.8 0,13.35 -9.45,22.8 -9.4,9.4 -22.8,9.4 -13.35,0 -22.75,-9.4 -9.45,-9.45 -9.45,-22.8 z"
         id="path39"
         inkscape:connector-curvature="0"
         style="fill:#333333;fill-opacity:0.99215686;stroke:none" />
      <path
         d="m 429.05,657 q -9.45,9.4 -9.45,22.8 0,13.35 9.45,22.8 9.4,9.4 22.75,9.4 13.4,0 22.8,-9.4 9.45,-9.45 9.45,-22.8 0,-13.4 -9.45,-22.8 -9.4,-9.45 -22.8,-9.45 -13.35,0 -22.75,9.45 m -2.4,22.75 q 0,-10.4 7.35,-17.8 7.35,-7.35 17.8,-7.35 10.45,0 17.8,7.35 7.4,7.4 7.4,17.8 0,10.45 -7.4,17.85 -7.35,7.35 -17.8,7.35 -10.45,0 -17.8,-7.35 -7.35,-7.4 -7.35,-17.85 M 445.1,673 q -2.8,2.8 -2.8,6.75 0,3.95 2.8,6.7 2.8,2.8 6.75,2.8 3.9,0 6.7,-2.8 2.8,-2.75 2.8,-6.7 0,-3.95 -2.8,-6.75 -2.8,-2.75 -6.7,-2.75 -3.95,0 -6.75,2.75 z"
         id="path41"
         inkscape:connector-curvature="0"
         style="fill:#b71e06;stroke:none" />
    </g>
    <g
       id="Layer3_3_MEMBER_0_FILL">
      <path
         d="m 1260.05,445.5 q 11.5338,-14.33125 -2.2,-23.95 l -275.6,30.35 2.6,23.85 275.2,-30.25 z"
         id="path44"
         inkscape:connector-curvature="0"
         style="fill:#333333;fill-opacity:0.99215686;stroke:none" />
    </g>
    <g
       id="Layer3_3_MEMBER_1_FILL">
      <path
         d="m 1020.95,497.25 q -11.875,-5.15801 -23.75,0 l 0,148.8 23.75,0 0,-148.8 z"
         id="path47"
         inkscape:connector-curvature="0"
         style="fill:#333333;fill-opacity:0.99215686;stroke:none" />
    </g>
    <g
       id="Layer3_4_FILL">
      <path
         d="m 384.45,377.2 -0.45,-4.75 -244.3,26.85 0.5,4.75 244.25,-26.85 z"
         id="path50"
         inkscape:connector-curvature="0"
         style="fill:#b71e06;stroke:none" />
    </g>
    <g
       id="Layer3_5_FILL">
      <path
         d="m 106.85,408.6 2.6,23.85 316,-34.75 q 42,-6.7 56.1,37.95 l 13.25,97 q 2.4,-0.6 5,-0.95 -2.6,0.35 -5,0.95 -17.85,4.35 -24.8,22.8 l 0,47.3 23.65,0 0,-37.25 q 1.65,-4.6 4.65,-7.25 3.45,-3.05 8.7,-3.55 -5.25,0.5 -8.7,3.55 l 5.35,39.2 23.8,-3.2 L 505.3,432.4 q -14.15,-64.1 -82.45,-58.55 l -316,34.75 z"
         id="path53"
         inkscape:connector-curvature="0"
         style="fill:#b71e06;stroke:none" />
    </g>
    <g
       id="Layer3_6_FILL">
      <path
         d="m 457.85,679.85 q 0,-2.55 -1.8,-4.35 -1.8,-1.75 -4.3,-1.75 -2.55,0 -4.35,1.75 -0.75,0.75 -1.15,1.65 -0.65,1.2 -0.65,2.7 0,2.55 1.8,4.35 1.8,1.8 4.35,1.8 2.5,0 4.3,-1.8 1.8,-1.8 1.8,-4.35 m 9.25,-72.55 0,0.8 0,17.35 q 0,0.1 0.05,0.25 0.05,2.3 -1.5,8.45 -1.9,7.45 -10.45,12.9 -8.4,5.35 -9.05,30.05 l 0.1,0.05 q 0.4,-0.9 1.15,-1.65 1.8,-1.75 4.35,-1.75 2.5,0 4.3,1.75 1.8,1.8 1.8,4.35 l 0.15,0 q 2.35,-18.5 13.4,-25.15 22.45,-9.9 24.8,-22.4 l 0,-25 -29.1,0 m 7.65,9.9 q 2.8,-2.8 6.75,-2.8 4,0 6.8,2.8 2.85,2.85 2.85,6.8 0,4 -2.85,6.8 -2.8,2.85 -6.8,2.85 -3.95,0 -6.75,-2.85 -2.85,-2.8 -2.85,-6.8 0,-3.95 2.85,-6.8 m -1.5,20.7 q 1.95,0 3.35,1.4 1.4,1.4 1.4,3.4 0,1.95 -1.4,3.35 -1.4,1.45 -3.35,1.45 -2,0 -3.4,-1.45 -1.4,-1.4 -1.4,-3.35 0,-2 1.4,-3.4 1.4,-1.4 3.4,-1.4 z"
         id="path56"
         inkscape:connector-curvature="0"
         style="fill:#b71e06;stroke:none" />
    </g>
    <g
       id="Layer3_7_FILL">
      <path
         d="m 175.6,487.95 q -3.5,-3.5 -8.45,-3.5 -0.85,0 -1.65,0.1 -3.9,0.5 -6.85,3.4 -3.5,3.5 -3.5,8.5 0,4.95 3.5,8.45 3.55,3.55 8.5,3.55 4.95,0 8.45,-3.55 1.55,-1.55 2.45,-3.35 1.1,-2.3 1.1,-5.1 0,-5 -3.55,-8.5 m 17.65,-30.4 -24.35,0 -3.4,0 0,27 q 0.8,-0.1 1.65,-0.1 4.95,0 8.45,3.5 3.55,3.5 3.55,8.5 0,2.8 -1.1,5.1 l 1.65,0 q 14.5,-2.7 16.95,-18.95 l 0,-25.05 -3.4,0 m -24.35,-29.3 24.35,-2.7 9.55,-1.05 -3.15,-29.05 -40.35,4.45 3.15,29.05 6.45,-0.7 m 24.35,-2.7 -24.35,2.7 0,29.3 24.35,0 0,-32 z"
         id="path59"
         inkscape:connector-curvature="0"
         style="fill:#b71e06;stroke:none" />
    </g>
    <g
       id="Layer3_8_FILL">
      <path
         d="m 110.9,249.7 12.4,0 0,-41.95 -12.4,7.15 0,34.8 m 0,0 -3.4,0 0,152.95 19.25,0 0,-152.95 -3.45,0 -12.4,0 m -16.55,-63.05 -58,0 q -4.95,8.9 0,18.55 l 52.8,0 q 10.6,2.35 19.65,10.9 l 2.1,-1.2 12.4,-7.15 1.6,-0.9 0.25,-0.9 q -11.85,-14 -30.8,-19.3 z"
         id="path62"
         inkscape:connector-curvature="0"
         style="fill:#b71e06;stroke:none" />
    </g>
    <g
       id="Layer3_9_FILL">
      <path
         d="m 108.6,360.8 q -1.95,1.95 -1.95,4.7 0,1.4 0.5,2.6 l 0,31.4 Q 110,442 147.35,456 l 1.65,4.35 q 1.75,1.7 4.1,1.7 2.4,0 4.1,-1.7 1.7,-1.7 1.7,-4.05 0,-2.4 -1.7,-4.1 -1,-1 -2.25,-1.4 l -2.5,-28.25 q 0.05,0 0.1,0 2.9,0 4.95,-2.1 2.05,-2.05 2.05,-4.95 0,-2.9 -2.05,-4.95 -2.05,-2.05 -4.95,-2.05 -0.7,0 -1.35,0.15 -16.35,-1.2 -26.45,-19.15 -3.25,-10.55 -4.5,-19.6 -0.2,-1.55 -0.35,-3.05 0.1,-0.65 0.1,-1.35 0,-1.25 -0.4,-2.35 -0.1,-0.2 -0.15,-0.4 -0.55,-1.05 -1.45,-1.95 -1.95,-1.95 -4.7,-1.95 -2.75,0 -4.7,1.95 m 2.75,6.55 q -0.75,-0.75 -0.75,-1.85 0,-1.05 0.75,-1.85 0.8,-0.75 1.85,-0.75 1.1,0 1.85,0.75 0.75,0.8 0.75,1.85 0,1.1 -0.75,1.85 -0.75,0.8 -1.85,0.8 -1.05,0 -1.85,-0.8 m 38,46.5 q 0.8,-0.75 1.85,-0.75 1.1,0 1.85,0.75 0.75,0.8 0.75,1.85 0,1.1 -0.75,1.85 -0.75,0.8 -1.85,0.8 -1.05,0 -1.85,-0.8 -0.75,-0.75 -0.75,-1.85 0,-1.05 0.75,-1.85 m -27.5,-8.2 q 10.55,9.25 21.2,11.55 l 2.55,28.85 q -29.05,-10.4 -23.75,-40.4 m 29.35,7.45 q -1.05,0 -1.85,0.75 -0.75,0.8 -0.75,1.85 0,1.1 0.75,1.85 0.8,0.8 1.85,0.8 1.1,0 1.85,-0.8 0.75,-0.75 0.75,-1.85 0,-1.05 -0.75,-1.85 -0.75,-0.75 -1.85,-0.75 m -40.6,-47.6 q 0,1.1 0.75,1.85 0.8,0.8 1.85,0.8 1.1,0 1.85,-0.8 0.75,-0.75 0.75,-1.85 0,-1.05 -0.75,-1.85 -0.75,-0.75 -1.85,-0.75 -1.05,0 -1.85,0.75 -0.75,0.8 -0.75,1.85 z"
         id="path65"
         inkscape:connector-curvature="0"
         style="fill:#b71e06;stroke:none" />
    </g>
    <g
       id="Layer2_0_MEMBER_2_FILL">
      <path
         d="m 442.9,581 q -4.9,4.95 -4.9,11.9 0,6.95 4.9,11.85 4.95,4.95 11.9,4.95 6.95,0 11.85,-4.95 4.95,-4.9 4.95,-11.85 0,-6.95 -4.95,-11.9 -4.9,-4.9 -11.85,-4.9 -6.95,0 -11.9,4.9 m 6.9,11.9 q 0,-2.05 1.45,-3.55 1.5,-1.45 3.55,-1.45 2.05,0 3.5,1.45 1.5,1.5 1.5,3.55 0,2.05 -1.5,3.5 -1.45,1.5 -3.5,1.5 -2.05,0 -3.55,-1.5 -1.45,-1.45 -1.45,-3.5 m 1.45,-3.55 q -1.45,1.5 -1.45,3.55 0,2.05 1.45,3.5 1.5,1.5 3.55,1.5 2.05,0 3.5,-1.5 1.5,-1.45 1.5,-3.5 0,-2.05 -1.5,-3.55 -1.45,-1.45 -3.5,-1.45 -2.05,0 -3.55,1.45 z"
         id="path68"
         inkscape:connector-curvature="0"
         style="fill:#b71e06;stroke:none" />
    </g>
    <g
       id="Layer2_0_MEMBER_3_FILL">
      <path
         d="M 110.75,280.05 Q 54.05,294.2 9.8,338.4 q -65,65.05 -65,157 0,91.95 65,156.95 49.45,49.45 114.4,61.3 20.5,3.75 42.6,3.75 22.1,0 42.6,-3.75 64.95,-11.85 114.35,-61.3 65.05,-65 65.05,-156.95 0,-91.95 -65.05,-157 -44.2,-44.2 -100.85,-58.35 -26.7,-6.65 -56.1,-6.65 -29.4,0 -56.05,6.65 m 56.05,9.85 q 85.15,0 145.35,60.2 60.2,60.2 60.2,145.35 0,85.1 -60.2,145.3 -60.2,60.2 -145.35,60.2 -85.1,0 -145.35,-60.2 -60.15,-60.2 -60.15,-145.3 0,-85.15 60.15,-145.35 60.25,-60.2 145.35,-60.2 z"
         id="path71"
         inkscape:connector-curvature="0"
         style="fill:#333333;fill-opacity:0.99215686;stroke:none" />
      <path
         d="m 312.15,350.1 q -60.2,-60.2 -145.35,-60.2 -85.1,0 -145.35,60.2 -60.15,60.2 -60.15,145.35 0,85.1 60.15,145.3 60.25,60.2 145.35,60.2 85.15,0 145.35,-60.2 60.2,-60.2 60.2,-145.3 0,-85.15 -60.2,-145.35 m -145.3,-52.25 q 81.8,0 139.6,57.85 57.9,57.85 57.9,139.7 0,81.8 -57.9,139.65 -57.8,57.9 -139.6,57.9 Q 85,692.95 27.1,635.05 -30.7,577.2 -30.7,495.4 -30.7,413.55 27.1,355.7 85,297.85 166.85,297.85 m 139.6,57.85 q -57.8,-57.85 -139.6,-57.85 -81.85,0 -139.75,57.85 -57.8,57.85 -57.8,139.7 0,81.8 57.8,139.65 57.9,57.9 139.75,57.9 81.8,0 139.6,-57.9 57.9,-57.85 57.9,-139.65 0,-81.85 -57.9,-139.7 m -139.7,-40.4 0.05,0 q 74.6,0 127.3,52.75 52.8,52.8 52.8,127.4 0,74.6 -52.8,127.3 -52.7,52.8 -127.3,52.8 -74.6,0 -127.4,-52.8 -52.7,-52.7 -52.7,-127.3 l 0,-0.05 q 0,-74.55 52.7,-127.35 52.8,-52.75 127.35,-52.75 z"
         id="path73"
         inkscape:connector-curvature="0"
         style="fill:#b71e06;stroke:none" />
    </g>
    <g
       id="Layer1_0_FILL">
      <path
         d="m -320.75,1122.45 q -0.3002,-0.2066 -0.65,-0.4 -3.02969,-1.7 -8.8,-1.7 -7.95,-0.1 -16.5,2.95 -8.5,3.1 -12.55,7.55 -2.89844,3.1115 -2.4,5.6 0.1082,0.4369 0.3,0.85 0.39102,0.016 1,0 0.11523,0.4008 0,0.9 -0.15,0.5 -0.2,1.1 l 0,0.05 q -0.15,0.65 -0.25,1.2 -0.1,0.55 -0.2,1 -0.2,1 -0.2,1.4 0,1.35 0.95,4.4 1.1,3.85 1.05,4.4 0,0.1 -1.6,14.05 -1.6,13.6 -1.6,17.4 0.05,3.5 3.85,13.6 3.85,10.15 5.85,11.05 8.35,2.3 16.2,3.85 10.4,1.95 17,1.95 0.45,0 1.55,-0.15 0.45,-0.1 0.85,-0.15 -1.95,-4.4 -2.9,-6.1 -0.25,-0.5 -0.2,-0.95 0.6,0.75 1.7,2.05 2.8,3.35 3.4,4.2 0.65,0.95 2.8,4.35 0.05,0.1 0.15,0.2 0.6,1.5 1.3,3.1 4.8,8.8 10.75,8.95 6.35,0 8.05,-5.05 0.75,-2.75 0.65,-13 l 0,-29.4 q 0,-0.4 0.2,-0.7 0.95,-1.95 3.45,-3.15 2.2,-1.05 4.65,-1.05 3.3,-0.05 11.75,3.45 7.7,3.2 11.05,3.25 4.45,0 8.2,-3.2 2.9,-2.5 5.3,-6.6 -3.05,-1.05 -17,-5.35 -11.7,-3.6 -16.65,-8.05 -2,-1.75 -7.1,-7.25 -5.2,-5.55 -7.75,-7.85 -2.65,-2.4 -8.95,-3.65 -3.45,-0.75 -5.8,-1.45 0.95,2.45 1.35,4.55 -2.6,-1.95 -4.05,-3.1 -0.65,-1.65 -1.55,-3.45 -0.05,-0.1 -0.1,-0.2 -0.25,-0.55 -0.45,-0.95 l -0.05,-0.05 q -0.5,-0.9 -0.9,-1.75 -0.75,-1.45 -1.4,-2.65 -3.25,-6.3 -3.7,-7.65 -0.28086,-0.8428 -0.55,-1.7 0.15781,-0.1078 0.3,-0.25 0.15,-0.25 0.4,-0.45 m -25.05,76.65 q 0.5,0 1.15,-0.05 0.1,0 0.25,0.05 2.15,0.3 10.5,0.3 14.7,0 17.6,0.45 0.4,0 0.8,0.25 4.65,2.95 5.75,3.4 0.45,0.1 1.85,0.1 0.7,-0.05 1.75,-0.65 2.2,-0.35 5.15,-2.2 1.75,-1.1 3.15,-2.4 1.05,-0.95 1.85,-1.75 0.05,0.6 -0.3,1.15 -0.4,0.55 -0.85,1.15 -1.65,2 -4.15,4.15 l 0.05,0 -0.05,0.05 q -4.35,3.8 -6.6,3.65 -2.25,0 -2.9,-0.3 l -0.05,0 q -1.15,-0.5 -5.95,-3.5 -2.9,-0.4 -17.1,-0.4 -8.75,0 -10.95,-0.35 -5.85,-0.95 -11.35,-4.7 -0.5,-0.35 -0.95,-0.65 -0.5,-0.35 -0.6,-1 -0.05,-0.25 -0.05,-0.45 0.8,0.6 2,1.35 4.1,2.35 10,2.35 z"
         id="path76"
         inkscape:connector-curvature="0"
         style="fill:#d1b172;stroke:none" />
      <path
         d="m -301.25,1203.05 -0.05,0 0,0.05 0.05,-0.05 z"
         id="path78"
         inkscape:connector-curvature="0"
         style="fill:#000000;stroke:none" />
      <path
         d="m -344.65,1199.05 q -0.65,0.05 -1.15,0.05 -5.9,0 -10,-2.35 -1.2,-0.75 -2,-1.35 0,0.2 0.05,0.45 0.1,0.65 0.6,1 0.45,0.3 0.95,0.65 5.5,3.75 11.35,4.7 2.2,0.35 10.95,0.35 14.2,0 17.1,0.4 4.8,3 5.95,3.5 l 0.05,0 q 0.65,0.3 2.9,0.3 2.25,0.15 6.6,-3.65 l 0,-0.05 q 2.5,-2.15 4.15,-4.15 0.45,-0.6 0.85,-1.15 0.35,-0.55 0.3,-1.15 -0.8,0.8 -1.85,1.75 -1.4,1.3 -3.15,2.4 -2.95,1.85 -5.15,2.2 -1.05,0.6 -1.75,0.65 -1.4,0 -1.85,-0.1 -1.1,-0.45 -5.75,-3.4 -0.4,-0.25 -0.8,-0.25 -2.9,-0.45 -17.6,-0.45 -8.35,0 -10.5,-0.3 -0.15,-0.05 -0.25,-0.05 m 25.75,-77.9 q -1.26035,0.4346 -2.5,0.9 0.3498,0.1934 0.65,0.4 -0.25,0.2 -0.4,0.45 -0.14219,0.1422 -0.3,0.25 0.26914,0.8572 0.55,1.7 0.45,1.35 3.7,7.65 0.65,1.2 1.4,2.65 0.4,0.85 0.9,1.75 l 0.05,0.05 q 0.2,0.4 0.45,0.95 0.05,0.1 0.1,0.2 0.9,1.8 1.55,3.45 1.45,1.15 4.05,3.1 -0.4,-2.1 -1.35,-4.55 2.35,0.7 5.8,1.45 6.3,1.25 8.95,3.65 2.55,2.3 7.75,7.85 5.1,5.5 7.1,7.25 4.95,4.45 16.65,8.05 13.95,4.3 17,5.35 -2.4,4.1 -5.3,6.6 -3.75,3.2 -8.2,3.2 -3.35,-0.05 -11.05,-3.25 -8.45,-3.5 -11.75,-3.45 -2.45,0 -4.65,1.05 -2.5,1.2 -3.45,3.15 -0.2,0.3 -0.2,0.7 l 0,29.4 q 0.1,10.25 -0.65,13 -1.7,5.05 -8.05,5.05 -5.95,-0.15 -10.75,-8.95 -0.7,-1.6 -1.3,-3.1 -0.1,-0.1 -0.15,-0.2 -2.15,-3.4 -2.8,-4.35 -0.6,-0.85 -3.4,-4.2 -1.1,-1.3 -1.7,-2.05 -0.05,0.45 0.2,0.95 0.95,1.7 2.9,6.1 -0.4,0.05 -0.85,0.15 -1.1,0.15 -1.55,0.15 -6.6,0 -17,-1.95 -7.85,-1.55 -16.2,-3.85 -2,-0.9 -5.85,-11.05 -3.8,-10.1 -3.85,-13.6 0,-3.8 1.6,-17.4 1.6,-13.95 1.6,-14.05 0.05,-0.55 -1.05,-4.4 -0.95,-3.05 -0.95,-4.4 0,-0.4 0.2,-1.4 0.1,-0.45 0.2,-1 0.1,-0.55 0.25,-1.2 l 0,-0.05 q 0.05,-0.6 0.2,-1.1 0.11523,-0.4992 0,-0.9 -0.60898,0.016 -1,0 -0.1918,-0.4131 -0.3,-0.85 -1.06562,0.3887 -2.15,0.8 0.2,0.4 0.4,0.8 -0.05,0.3 -0.1,0.65 l 0,-0.05 q -0.25,1.15 -0.35,2 -0.2,0.8 -0.25,1.35 -0.1,0.65 -0.1,0.95 0,1.7 1.1,5.35 0.85,3 0.9,3.45 0,0.1 -1.6,13.7 -1.6,13.85 -1.6,17.75 -0.05,3.8 4.05,14.75 4.65,12.35 7.85,12.95 l 0.05,0 q 8.5,2.3 16.4,3.85 10.75,2.05 17.55,2.05 0.55,0 2,-0.2 1.05,-0.2 1.6,-0.2 0.05,0 0.15,0 1,2.3 2.2,5.1 0,0.15 0.05,0.2 5.85,10.75 13.4,10.6 8.75,0 10.9,-7.25 0.9,-2.95 0.8,-14 l 0,-28.85 q 0.65,-0.9 1.9,-1.55 l 0,0.05 q 1.6,-0.75 3.4,-0.75 3,0.05 10.65,3.25 8.4,3.5 12.15,3.45 5.45,0 10.1,-3.9 3.85,-3.3 6.85,-9.1 0.25,-0.55 0.1,-1.15 -0.2,-0.65 -0.75,-0.95 -0.25,-0.15 -0.45,-0.15 -0.2,-0.2 -0.45,-0.3 -1.25,-0.6 -18.05,-5.8 -10.95,-3.4 -15.55,-7.4 -1.95,-1.75 -6.9,-7.05 -5.35,-5.65 -7.9,-8 -3.05,-2.9 -10.35,-4.4 -5.8,-1.2 -8.25,-2.4 -0.2,-0.35 -0.4,-0.7 l 0,-0.05 q -0.15,-0.3 -0.3,-0.6 -0.85,-1.6 -1.55,-2.9 -3.45,-6.65 -3.9,-8 -0.45,-1.35 -0.85,-2.65 z"
         id="path80"
         inkscape:connector-curvature="0"
         style="fill:#c29741;stroke:none" />
    </g>
    <g
       id="Layer1_1_FILL">
      <path
         d="m -448.35,1011.6 0.25,-0.15 q -0.15,0.05 -0.3,0.1 l 0.05,0.05 z"
         id="path83"
         inkscape:connector-curvature="0"
         style="fill:#000000;stroke:none" />
      <path
         d="m -435.75,1028.9 q -2.85,-7.65 -8.2,-13.65 -1.6,-1.75 -3.1,-3.6 l -1.05,-0.2 -0.25,0.15 q 0.55,0.6 1.05,1.25 6.2,7.9 8.95,17.65 2.4418,6.2264 4.55,14.55 0.2125,0.7418 0.4,1.5 2.85,11.35 8.05,43.75 1.3,8.2 5.6,23.3 2.85,10.05 6,19.6 0.4,1.3 0.85,2.65 0.45,1.35 3.7,7.65 0.65,1.2 1.4,2.65 0.10313,0.2063 0.2,0.4 0.91602,-0.7959 1.7,-1.65 0.0242,0.1203 0.05,0.25 0.31895,-0.3104 0.65,-0.6 -0.5,-0.95 -0.95,-1.75 -3.45,-6.65 -3.9,-8 -0.45,-1.35 -0.85,-2.65 -3.1,-9.45 -6,-19.45 -4.2,-14.85 -5.5,-22.9 -5.25,-32.65 -8.1,-44.05 -0.0875,-0.3518 -0.2,-0.7 -2.31641,-9.2691 -5.05,-16.15 m -78.8,-15.4 -3.6,2.65 q -0.25,0.85 -0.25,1.7 0.2,11.2 3.95,22.4 0.74043,2.3908 1.55,4.8 1.58301,4.451 3.55,9.05 6.35,15 17.8,33.1 19,29.9 26.7,44.15 5.4,10 9.05,16.9 0.2,0.4 0.4,0.8 -0.05,0.3 -0.1,0.65 l 0,-0.05 q -0.25,1.15 -0.35,2 -0.2,0.8 -0.25,1.35 -0.1,0.65 -0.1,0.95 0,1.7 1.1,5.35 0.55,2 0.8,2.9 1.24355,0.2406 2.45,0.45 0.33613,0.023 0.65,0.05 -0.004,-0.6893 -1.05,-4.35 -0.95,-3.05 -0.95,-4.4 0,-0.4 0.2,-1.4 0.1,-0.45 0.2,-1 0.1,-0.55 0.25,-1.2 l 0,-0.05 q 0.05,-0.6 0.2,-1.1 0.15,-0.65 -0.1,-1.15 -0.2,-0.4 -0.45,-0.85 -3.7,-7.05 -9.35,-17.45 -7.7,-14.25 -26.8,-44.3 -11.25,-17.8 -17.55,-32.65 -1.67363,-3.9287 -3.05,-7.75 -0.57441,-1.6752 -1.15,-3.35 l -5.15,-21.3 2,-7.25 -0.6,0.35 z"
         id="path85"
         inkscape:connector-curvature="0"
         style="fill:#c29741;stroke:none" />
      <path
         d="m -495.8,1001.2 q -10.8,4.1 -18.75,12.3 l 0.6,-0.35 -2,7.25 5.15,21.3 q 0.57559,1.6748 1.15,3.35 1.37637,3.8213 3.05,7.75 6.3,14.85 17.55,32.65 19.1,30.05 26.8,44.3 5.65,10.4 9.35,17.45 0.25,0.45 0.45,0.85 0.25,0.5 0.1,1.15 -0.15,0.5 -0.2,1.1 l 0,0.05 q -0.15,0.65 -0.25,1.2 -0.1,0.55 -0.2,1 -0.2,1 -0.2,1.4 0,1.35 0.95,4.4 1.0459,3.6607 1.05,4.35 -0.31387,-0.027 -0.65,-0.05 -0.29043,-0.027 -0.6,-0.05 2.8,4.6 9.8,6.3 8.55,2.05 18.35,-1.55 9.8,-3.55 15,-10.6 4.45391,-6.0201 3.45,-11.6 -0.0258,-0.1297 -0.05,-0.25 -0.78398,0.8541 -1.7,1.65 -0.0969,-0.1937 -0.2,-0.4 -0.75,-1.45 -1.4,-2.65 -3.25,-6.3 -3.7,-7.65 -0.45,-1.35 -0.85,-2.65 -3.15,-9.55 -6,-19.6 -4.3,-15.1 -5.6,-23.3 -5.2,-32.4 -8.05,-43.75 -0.1875,-0.7582 -0.4,-1.5 -2.1082,-8.3236 -4.55,-14.55 -2.75,-9.75 -8.95,-17.65 -0.5,-0.65 -1.05,-1.25 l -0.05,-0.05 q 0.15,-0.05 0.3,-0.1 l 1.05,0.2 q -0.6,-0.85 -1.4,-1.5 -4.35,-3.8 -9.2,-7.4 -6.15,-4.4 -13.65,-4.8 -12.6,-1.3 -24.5,3.25 z"
         id="path87"
         inkscape:connector-curvature="0"
         style="fill:#d1b172;stroke:none" />
    </g>
    <g
       id="Layer1_2_FILL">
      <path
         d="m -447.35,554.1 q -0.1,0.2 -0.15,0.45 -5.8,16.3 -16.15,49 l 0,-0.05 q -0.6,1.85 -1.2,3.65 -1.23555,3.55195 -2.55,7.05 -0.6,2.1 -1.35,4.1 -0.8,2.15 -1.6,4.1 -0.85,2.15 -1.7,4.25 -0.85,2.05 -1.6,4.05 -0.75,1.8 -1.6,3.75 -0.55,1.35 -1,2.45 -1,2.2 -1.7,4.4 -0.25,0.7 -0.55,1.4 -0.25,0.65 -0.5,1.25 l 4.1,-2.2 q 0.15,-0.35 0.3,-0.75 0.95,-2.05 1.85,-4.15 0.95,-2.2 1.7,-4.2 0.8,-2.05 1.6,-3.95 0.85,-2.15 1.75,-4.55 0.9,-2.25 1.8,-4.55 0.8,-2.15 1.6,-4.5 0.4,-1.15 0.7,-2.4 0.1373,-0.3541 0.25,-0.7 0.65,-1.9 1.3,-3.75 0.6,-1.8 1.25,-3.7 11.25,-35.45 17.05,-51.55 1.3,-0.4 2.9,-0.7 5.95,-1.35 8.6,-1.35 0.45,0 0.95,0.05 0.3,0.05 0.6,0.1 1.1,0.1 2.45,0.5 0.3,0.05 0.6,0.15 1.3,0.35 2.4,0.65 -1.55,-1.15 -2.2,-1.7 -0.15,-0.1 -0.25,-0.2 -0.65,-0.55 -1.4,-0.95 -0.1,-0.05 -0.15,-0.05 -0.55,-0.25 -1.2,-0.35 -2.2,-0.5 -5.4,-0.6 -0.95,-0.05 -1.75,-0.1 -1.75,0.3 -3.85,0.75 -1.95,0.45 -3.5,0.85 -0.15,0 -0.35,0.05 -0.05,0 -0.05,0.05 l -0.05,0 q -0.05,0 -0.1,0.05 -3.35,0.9 -4.25,1.7 -0.5,0.4 -0.55,1.05 -0.1,0.6 0.25,1.15 0.4,0.5 1,0.6 0.6,0.05 1.1,-0.3 0.2,-0.15 0.6,-0.3 m -5.75,-119.5 q -10.7,1.15 -20.3,7.6 -18.7,12.6 -26.85,33.7 -7.15,18.55 -10.45,42.45 -0.55,3.55 -2.2,17.9 -0.4,3.45 -0.75,6.4 -6.8,12.4 -12.5,25.85 -5.8,13.55 -12.1,31.9 -0.3,0.9 -6.85,18.7 -4.75,11.2 -7.1,22.9 -0.05,0.3 0,0.7 l 4,2.65 -0.75,-2.3 0.45,0.1 -0.8,-1.7 q 0.15,-1.25 0.55,-2.4 3.7,-10.95 7.6,-21.9 5.45,-14.9 5.75,-15.7 l -0.05,0 q 6.3,-18.25 12.05,-31.7 3.9,-9.2 8.3,-17.85 0.05,0.2 0.2,0.45 0.25,0.45 0.7,0.6 0.1,-0.2 0.2,-0.45 0.65,-1.45 1.75,-3.65 0.45,-0.9 0.95,-1.85 0.25,-1.55 0.5,-3.4 0.05,-0.2 0.05,-0.4 0.4,-3.05 0.85,-6.6 1.65,-14.3 2.15,-17.75 3.25,-23.6 10.3,-41.75 l 0,-0.05 q 7.75,-20.15 25.65,-32.2 4.5,-3.05 9.3,-4.8 2.95,-2.05 10.45,-3.9 1.4,-0.4 2.95,-0.7 0.45,-0.1 0.9,-0.15 1.75,-0.4 3.55,-0.75 -2.35,-0.2 -4.6,-0.15 -1.95,0 -3.85,0.2 z"
         id="path90"
         inkscape:connector-curvature="0"
         style="fill:#c29741;stroke:none" />
      <path
         d="m -448.2,435.3 q -0.45,0.05 -0.9,0.15 -1.55,0.3 -2.95,0.7 -7.5,1.85 -10.45,3.9 -4.8,1.75 -9.3,4.8 -17.9,12.05 -25.65,32.2 l 0,0.05 q -7.05,18.15 -10.3,41.75 -0.5,3.45 -2.15,17.75 -0.45,3.55 -0.85,6.6 0,0.2 -0.05,0.4 -0.25,1.85 -0.5,3.4 -0.5,0.95 -0.95,1.85 -1.1,2.2 -1.75,3.65 -0.1,0.25 -0.2,0.45 -0.45,-0.15 -0.7,-0.6 -0.15,-0.25 -0.2,-0.45 -4.4,8.65 -8.3,17.85 -5.75,13.45 -12.05,31.7 l 0.05,0 q -0.3,0.8 -5.75,15.7 -3.9,10.95 -7.6,21.9 -0.4,1.15 -0.55,2.4 l 0.8,1.7 -0.45,-0.1 0.75,2.3 0.55,0.1 q 8.4,9.5 21.25,11.4 12.35,1.95 24.7,-0.15 11.5,-2.15 20.25,-9.95 0.6875,-0.60449 1.25,-1.25 l 1.2,-1.55 q 0.25,-0.6 0.5,-1.25 0.3,-0.7 0.55,-1.4 0.7,-2.2 1.7,-4.4 0.45,-1.1 1,-2.45 0.85,-1.95 1.6,-3.75 0.75,-2 1.6,-4.05 0.85,-2.1 1.7,-4.25 0.8,-1.95 1.6,-4.1 0.75,-2 1.35,-4.1 1.31445,-3.49805 2.55,-7.05 0.6,-1.8 1.2,-3.65 l 0,0.05 q 10.35,-32.7 16.15,-49 l -0.45,-0.15 q -0.5,0.35 -1.1,0.3 -0.6,-0.1 -1,-0.6 -0.35,-0.55 -0.25,-1.15 0.05,-0.65 0.55,-1.05 0.9,-0.8 4.25,-1.7 0.05,-0.05 0.1,-0.05 l 0.05,0 q 0,-0.05 0.05,-0.05 0.2,-0.05 0.35,-0.05 1.55,-0.4 3.5,-0.85 2.1,-0.45 3.85,-0.75 0.8,0.05 1.75,0.1 3.2,0.1 5.4,0.6 0.65,0.1 1.2,0.35 0.05,0 0.15,0.05 0.75,0.4 1.4,0.95 31.95,-63.35 -12.35,-107.75 -3.8,-3.85 -8.15,-7.45 z"
         id="path92"
         inkscape:connector-curvature="0"
         style="fill:#d1b172;stroke:none" />
    </g>
    <g
       id="Layer0_0_FILL">
      <path
         d="m 108.6,360.8 q -1.95,1.95 -1.95,4.7 0,1.4 0.5,2.6 l 0,31.4 Q 110,442 147.35,456 l 1.65,4.35 q 1.75,1.7 4.1,1.7 2.4,0 4.1,-1.7 1.7,-1.7 1.7,-4.05 0,-2.4 -1.7,-4.1 -1,-1 -2.25,-1.4 l -2.5,-28.25 q 0.05,0 0.1,0 2.9,0 4.95,-2.1 2.05,-2.05 2.05,-4.95 0,-2.9 -2.05,-4.95 -2.05,-2.05 -4.95,-2.05 -0.7,0 -1.35,0.15 -16.35,-1.2 -26.45,-19.15 -3.25,-10.55 -4.5,-19.6 -0.2,-1.55 -0.35,-3.05 0.1,-0.65 0.1,-1.35 0,-1.25 -0.4,-2.35 -0.1,-0.2 -0.15,-0.4 -0.55,-1.05 -1.45,-1.95 -1.95,-1.95 -4.7,-1.95 -2.75,0 -4.7,1.95 m 2.75,6.55 q -0.75,-0.75 -0.75,-1.85 0,-1.05 0.75,-1.85 0.8,-0.75 1.85,-0.75 1.1,0 1.85,0.75 0.75,0.8 0.75,1.85 0,1.1 -0.75,1.85 -0.75,0.8 -1.85,0.8 -1.05,0 -1.85,-0.8 m 38,46.5 q 0.8,-0.75 1.85,-0.75 1.1,0 1.85,0.75 0.75,0.8 0.75,1.85 0,1.1 -0.75,1.85 -0.75,0.8 -1.85,0.8 -1.05,0 -1.85,-0.8 -0.75,-0.75 -0.75,-1.85 0,-1.05 0.75,-1.85 m -27.5,-8.2 q 10.55,9.25 21.2,11.55 l 2.55,28.85 q -29.05,-10.4 -23.75,-40.4 m 29.35,7.45 q -1.05,0 -1.85,0.75 -0.75,0.8 -0.75,1.85 0,1.1 0.75,1.85 0.8,0.8 1.85,0.8 1.1,0 1.85,-0.8 0.75,-0.75 0.75,-1.85 0,-1.05 -0.75,-1.85 -0.75,-0.75 -1.85,-0.75 m -40.6,-47.6 q 0,1.1 0.75,1.85 0.8,0.8 1.85,0.8 1.1,0 1.85,-0.8 0.75,-0.75 0.75,-1.85 0,-1.05 -0.75,-1.85 -0.75,-0.75 -1.85,-0.75 -1.05,0 -1.85,0.75 -0.75,0.8 -0.75,1.85 z"
         id="path95"
         inkscape:connector-curvature="0"
         style="fill:#b71e06;stroke:none" />
    </g>
    <path
       id="Layer3_0_1_STROKES"
       d="m 471.2,597.5 21.2,0 0,14.8 -21.2,0 0,-14.8 z"
       inkscape:connector-curvature="0"
       style="fill:none;stroke:#000000;stroke-width:3;stroke-linecap:round;stroke-linejoin:round" />
    <path
       id="Layer3_1_1_STROKES"
       d="m 515.1,528.8 16.85,119.15 q 2.2,12.25 -11.45,14.1 l -51.1,7.25 q -8,-5.1 -1.75,-12.25 l 52,-7.4 -16.85,-119.15 12.3,-1.7 z"
       inkscape:connector-curvature="0"
       style="fill:none;stroke:#000000;stroke-width:3;stroke-linecap:round;stroke-linejoin:round" />
    <path
       id="Layer3_2_MEMBER_0_MEMBER_0_1_STROKES"
       d="m 427.05,677.9 q 7.85,2 15.7,0.1 l 4.15,10.65 q -6.5,4.6 -10.25,12 -11.1,-9.1 -9.6,-22.75 l -0.15,-0.3"
       inkscape:connector-curvature="0"
       style="fill:none;stroke:#000000;stroke-width:3;stroke-linecap:round;stroke-linejoin:round" />
    <path
       id="Layer3_2_MEMBER_0_MEMBER_1_1_STROKES"
       d="m 468.5,661.45 -0.35,-0.1 q -6.1,5.35 -9,12.85 l -11.1,-2.6 q -0.1,-7.95 -4.05,-15.25 13.8,-3.95 24.15,5"
       inkscape:connector-curvature="0"
       style="fill:none;stroke:#000000;stroke-width:3;stroke-linecap:round;stroke-linejoin:round" />
    <path
       id="Layer3_2_MEMBER_0_MEMBER_2_1_STROKES"
       d="m 460.35,704.1 q -1.6,-7.9 -6.65,-14.2 l 7.8,-8.35 q 6.95,3.9 15.25,4.1 -3.4,13.95 -16.4,18.45 l -0.2,0.25"
       inkscape:connector-curvature="0"
       style="fill:none;stroke:#000000;stroke-width:3;stroke-linecap:round;stroke-linejoin:round" />
    <path
       id="Layer3_2_MEMBER_1_1_STROKES"
       d="m 445.1,673 q 2.8,-2.75 6.75,-2.75 3.9,0 6.7,2.75 2.8,2.8 2.8,6.75 0,3.95 -2.8,6.7 -2.8,2.8 -6.7,2.8 -3.95,0 -6.75,-2.8 -2.8,-2.75 -2.8,-6.7 0,-3.95 2.8,-6.75 z m -19.9,-19.85 q 11,-11 26.6,-11 15.6,0 26.6,11 11,11 11,26.6 0,15.6 -11,26.6 -11,11 -26.6,11 -15.6,0 -26.6,-11 -11,-11 -11,-26.6 0,-15.6 11,-26.6 z m 8.8,8.8 q 7.35,-7.35 17.8,-7.35 10.45,0 17.8,7.35 7.4,7.4 7.4,17.8 0,10.45 -7.4,17.85 -7.35,7.35 -17.8,7.35 -10.45,0 -17.8,-7.35 -7.35,-7.4 -7.35,-17.85 0,-10.4 7.35,-17.8 z M 429.05,657 q 9.4,-9.45 22.75,-9.45 13.4,0 22.8,9.45 9.45,9.4 9.45,22.8 0,13.35 -9.45,22.8 -9.4,9.4 -22.8,9.4 -13.35,0 -22.75,-9.4 -9.45,-9.45 -9.45,-22.8 0,-13.4 9.45,-22.8 z"
       inkscape:connector-curvature="0"
       style="fill:none;stroke:#000000;stroke-width:3;stroke-linecap:round;stroke-linejoin:round" />
    <path
       id="Layer3_3_MEMBER_0_1_STROKES"
       d="m 1257.85,421.575 -275.6,30.325 2.6,23.85 275.2,-30.25 q 11.5338,-14.33125 -2.2,-23.925 z"
       inkscape:connector-curvature="0"
       style="fill:none;stroke:#000000;stroke-width:3;stroke-linecap:round;stroke-linejoin:round" />
    <path
       id="Layer3_3_MEMBER_1_1_STROKES"
       d="m 1020.95,497.25 0,148.8 -23.75,0 0,-148.8 q 11.875,-5.15801 23.75,0 z"
       inkscape:connector-curvature="0"
       style="fill:none;stroke:#000000;stroke-width:3;stroke-linecap:round;stroke-linejoin:round" />
    <path
       id="Layer3_4_1_STROKES"
       d="m 384,372.45 -244.3,26.85 0.5,4.75 244.25,-26.85 -0.45,-4.75 z"
       inkscape:connector-curvature="0"
       style="fill:none;stroke:#000000;stroke-width:3;stroke-linecap:round;stroke-linejoin:round" />
    <path
       id="Layer3_5_1_STROKES"
       d="m 106.85,408.6 316,-34.75 q 68.3,-5.55 82.45,58.55 l 22.15,161.85 -23.8,3.2 -5.35,-39.2 q -3,2.65 -4.65,7.25 l 0,37.25 -23.65,0 0,-47.3 q 6.95,-18.45 24.8,-22.8 l -13.25,-97 Q 467.45,391 425.45,397.7 l -316,34.75 -2.6,-23.85 z M 494.8,532.65 q 2.4,-0.6 5,-0.95 m -1.5,26.55 q 3.45,-3.05 8.7,-3.55"
       inkscape:connector-curvature="0"
       style="fill:none;stroke:#000000;stroke-width:3;stroke-linecap:round;stroke-linejoin:round" />
    <path
       id="Layer3_6_1_STROKES"
       d="m 481.5,614.4 q 4,0 6.8,2.8 2.85,2.85 2.85,6.8 0,4 -2.85,6.8 -2.8,2.85 -6.8,2.85 -3.95,0 -6.75,-2.85 -2.85,-2.8 -2.85,-6.8 0,-3.95 2.85,-6.8 2.8,-2.8 6.75,-2.8 z m -14.4,-6.3 0,17.35 q 0,0.1 0.05,0.25 0.05,2.3 -1.5,8.45 -1.9,7.45 -10.45,12.9 -8.4,5.35 -9.05,30.05 l 0.1,0.05 q 0.4,-0.9 1.15,-1.65 1.8,-1.75 4.35,-1.75 2.5,0 4.3,1.75 1.8,1.8 1.8,4.35 l 0.15,0 q 2.35,-18.5 13.4,-25.15 22.45,-9.9 24.8,-22.4 l 0,-25 -29.1,0 m 9.5,32 q 1.4,1.4 1.4,3.4 0,1.95 -1.4,3.35 -1.4,1.45 -3.35,1.45 -2,0 -3.4,-1.45 -1.4,-1.4 -1.4,-3.35 0,-2 1.4,-3.4 1.4,-1.4 3.4,-1.4 1.95,0 3.35,1.4 z m -18.75,40.55 q 0,2.55 -1.8,4.35 -1.8,1.8 -4.3,1.8 -2.55,0 -4.35,-1.8 -1.8,-1.8 -1.8,-4.35 0,-1.5 0.65,-2.7"
       inkscape:connector-curvature="0"
       style="fill:none;stroke:#000000;stroke-width:3;stroke-linecap:round;stroke-linejoin:round" />
    <path
       id="Layer3_7_1_STROKES"
       d="m 193.25,425.55 -24.35,2.7 0,29.3 24.35,0 0,-32 9.55,-1.05 -3.15,-29.05 -40.35,4.45 3.15,29.05 6.45,-0.7 m -3.4,56.3 q 0.8,-0.1 1.65,-0.1 4.95,0 8.45,3.5 3.55,3.5 3.55,8.5 0,2.8 -1.1,5.1 l 1.65,0 q 14.5,-2.7 16.95,-18.95 l 0,-25.05 -3.4,0 m -15.2,44 q -0.9,1.8 -2.45,3.35 -3.5,3.55 -8.45,3.55 -4.95,0 -8.5,-3.55 -3.5,-3.5 -3.5,-8.45 0,-5 3.5,-8.5 2.95,-2.9 6.85,-3.4 l 0,-27 3.4,0"
       inkscape:connector-curvature="0"
       style="fill:none;stroke:#000000;stroke-width:3;stroke-linecap:round;stroke-linejoin:round" />
    <path
       id="Layer3_8_1_STROKES"
       d="m 125.15,205.95 q -11.85,-14 -30.8,-19.3 l -58,0 q -4.95,8.9 0,18.55 l 52.8,0 q 10.6,2.35 19.65,10.9 l 2.1,-1.2 12.4,-7.125 1.6,-0.925 m -1.6,0.925 0,41.925 3.45,0 0,152.95 -19.25,0 0,-152.95 3.4,0 0,-34.8 m 0,34.8 12.4,0"
       inkscape:connector-curvature="0"
       style="fill:none;stroke:#000000;stroke-width:3;stroke-linecap:round;stroke-linejoin:round" />
    <path
       id="Layer3_9_1_STROKES"
       d="M 147.35,456 Q 110,442 107.15,399.5 l 0,-31.4 q -0.5,-1.2 -0.5,-2.6 0,-2.75 1.95,-4.7 1.95,-1.95 4.7,-1.95 2.75,0 4.7,1.95 0.9,0.9 1.45,1.95 0.05,0.2 0.15,0.4 0.4,1.1 0.4,2.35 0,0.7 -0.1,1.35 0.15,1.5 0.35,3.05 1.25,9.05 4.5,19.6 10.1,17.95 26.45,19.15 0.65,-0.15 1.35,-0.15 2.9,0 4.95,2.05 2.05,2.05 2.05,4.95 0,2.9 -2.05,4.95 -2.05,2.1 -4.95,2.1 -0.05,0 -0.1,0 l 2.5,28.25 q 1.25,0.4 2.25,1.4 1.7,1.7 1.7,4.1 0,2.35 -1.7,4.05 -1.7,1.7 -4.1,1.7 -2.35,0 -4.1,-1.7 -1.65,-1.7 -1.65,-4.05 0,-0.15 0,-0.3 z M 110.6,365.5 q 0,-1.05 0.75,-1.85 0.8,-0.75 1.85,-0.75 1.1,0 1.85,0.75 0.75,0.8 0.75,1.85 0,1.1 -0.75,1.85 -0.75,0.8 -1.85,0.8 -1.05,0 -1.85,-0.8 -0.75,-0.75 -0.75,-1.85 z m 40.6,47.6 q 1.1,0 1.85,0.75 0.75,0.8 0.75,1.85 0,1.1 -0.75,1.85 -0.75,0.8 -1.85,0.8 -1.05,0 -1.85,-0.8 -0.75,-0.75 -0.75,-1.85 0,-1.05 0.75,-1.85 0.8,-0.75 1.85,-0.75 z m -29.35,-7.45 q -5.3,30 23.75,40.4 l -2.55,-28.85 q -10.65,-2.3 -21.2,-11.55 z"
       inkscape:connector-curvature="0"
       style="fill:none;stroke:#000000;stroke-width:3;stroke-linecap:round;stroke-linejoin:round" />
    <path
       id="Layer2_0_MEMBER_0_1_STROKES"
       d="m 484.2,500.3 0,180.1 179.3,0 m -359.35,0 180.05,0 0,179.65"
       inkscape:connector-curvature="0"
       style="fill:none;stroke:#000000;stroke-width:3;stroke-linecap:round;stroke-linejoin:round" />
    <path
       id="Layer2_0_MEMBER_1_1_STROKES"
       d="M 39.837574,623.00346 167.15229,495.68875 39.802219,368.33868 m 254.134451,0.56569 -126.78438,126.78438 127.03187,127.03187"
       inkscape:connector-curvature="0"
       style="fill:none;stroke:#000000;stroke-width:3;stroke-linecap:round;stroke-linejoin:round" />
    <path
       id="Layer2_0_MEMBER_2_1_STROKES"
       d="m 442.9,581 q 4.95,-4.9 11.9,-4.9 6.95,0 11.85,4.9 4.95,4.95 4.95,11.9 0,6.95 -4.95,11.85 -4.9,4.95 -11.85,4.95 -6.95,0 -11.9,-4.95 -4.9,-4.9 -4.9,-11.85 0,-6.95 4.9,-11.9 z m 8.35,8.35 q 1.5,-1.45 3.55,-1.45 2.05,0 3.5,1.45 1.5,1.5 1.5,3.55 0,2.05 -1.5,3.5 -1.45,1.5 -3.5,1.5 -2.05,0 -3.55,-1.5 -1.45,-1.45 -1.45,-3.5 0,-2.05 1.45,-3.55 z"
       inkscape:connector-curvature="0"
       style="fill:none;stroke:#000000;stroke-width:3;stroke-linecap:round;stroke-linejoin:round" />
    <path
       id="Layer2_0_MEMBER_3_1_STROKES"
       d="m 110.75,280.05 q 26.65,-6.65 56.05,-6.65 29.4,0 56.1,6.65 56.65,14.15 100.85,58.35 65.05,65.05 65.05,157 0,91.95 -65.05,156.95 -49.4,49.45 -114.35,61.3 -20.5,3.75 -42.6,3.75 -22.1,0 -42.6,-3.75 -64.95,-11.85 -114.4,-61.3 -65,-65 -65,-156.95 0,-91.95 65,-157 44.25,-44.2 100.95,-58.35 z m 56.05,35.25 q 74.6,0 127.3,52.75 52.8,52.8 52.8,127.4 0,74.6 -52.8,127.3 -52.7,52.8 -127.3,52.8 -74.6,0 -127.4,-52.8 -52.7,-52.7 -52.7,-127.3 l 0,-0.05 q 0,-74.55 52.7,-127.35 52.8,-52.75 127.35,-52.75 l 0.05,0 z m 145.35,34.8 q 60.2,60.2 60.2,145.35 0,85.1 -60.2,145.3 -60.2,60.2 -145.35,60.2 -85.1,0 -145.35,-60.2 -60.15,-60.2 -60.15,-145.3 0,-85.15 60.15,-145.35 60.25,-60.2 145.35,-60.2 85.15,0 145.35,60.2 z m -5.7,5.6 q 57.9,57.85 57.9,139.7 0,81.8 -57.9,139.65 -57.8,57.9 -139.6,57.9 -81.85,0 -139.75,-57.9 -57.8,-57.85 -57.8,-139.65 0,-81.85 57.8,-139.7 57.9,-57.85 139.75,-57.85 81.8,0 139.6,57.85 z"
       inkscape:connector-curvature="0"
       style="fill:none;stroke:#000000;stroke-width:3;stroke-linecap:round;stroke-linejoin:round" />
    <path
       id="Layer0_0_1_STROKES"
       d="m 110.6,365.5 q 0,-1.05 0.75,-1.85 0.8,-0.75 1.85,-0.75 1.1,0 1.85,0.75 0.75,0.8 0.75,1.85 0,1.1 -0.75,1.85 -0.75,0.8 -1.85,0.8 -1.05,0 -1.85,-0.8 -0.75,-0.75 -0.75,-1.85 z M 147.35,456 Q 110,442 107.15,399.5 l 0,-31.4 q -0.5,-1.2 -0.5,-2.6 0,-2.75 1.95,-4.7 1.95,-1.95 4.7,-1.95 2.75,0 4.7,1.95 0.9,0.9 1.45,1.95 0.05,0.2 0.15,0.4 0.4,1.1 0.4,2.35 0,0.7 -0.1,1.35 0.15,1.5 0.35,3.05 1.25,9.05 4.5,19.6 10.1,17.95 26.45,19.15 0.65,-0.15 1.35,-0.15 2.9,0 4.95,2.05 2.05,2.05 2.05,4.95 0,2.9 -2.05,4.95 -2.05,2.1 -4.95,2.1 -0.05,0 -0.1,0 l 2.5,28.25 q 1.25,0.4 2.25,1.4 1.7,1.7 1.7,4.1 0,2.35 -1.7,4.05 -1.7,1.7 -4.1,1.7 -2.35,0 -4.1,-1.7 -1.65,-1.7 -1.65,-4.05 0,-0.15 0,-0.3 z m 3.85,-42.9 q 1.1,0 1.85,0.75 0.75,0.8 0.75,1.85 0,1.1 -0.75,1.85 -0.75,0.8 -1.85,0.8 -1.05,0 -1.85,-0.8 -0.75,-0.75 -0.75,-1.85 0,-1.05 0.75,-1.85 0.8,-0.75 1.85,-0.75 z m -29.35,-7.45 q -5.3,30 23.75,40.4 l -2.55,-28.85 q -10.65,-2.3 -21.2,-11.55 z"
       inkscape:connector-curvature="0"
       style="fill:none;stroke:#000000;stroke-width:3;stroke-linecap:round;stroke-linejoin:round" />
  </defs>
  <g
     transform="translate(-105.15625,-357.34375)"
     id="g244">
    <use
       xlink:href="#Layer0_0_FILL"
       id="use246"
       x="0"
       y="0"
       width="550"
       height="400" />
    <use
       xlink:href="#Layer0_0_1_STROKES"
       id="use248"
       x="0"
       y="0"
       width="550"
       height="400" />
  </g>
</svg>
