<?xml version="1.0" encoding="UTF-8" standalone="no"?>
<svg
   xmlns:dc="http://purl.org/dc/elements/1.1/"
   xmlns:cc="http://creativecommons.org/ns#"
   xmlns:rdf="http://www.w3.org/1999/02/22-rdf-syntax-ns#"
   xmlns:svg="http://www.w3.org/2000/svg"
   xmlns="http://www.w3.org/2000/svg"
   xmlns:xlink="http://www.w3.org/1999/xlink"
   xmlns:sodipodi="http://sodipodi.sourceforge.net/DTD/sodipodi-0.dtd"
   xmlns:inkscape="http://www.inkscape.org/namespaces/inkscape"
   version="1.1"
   preserveAspectRatio="none"
   x="0px"
   y="0px"
   width="155.24512"
   height="177.65227"
   viewBox="0 0 155.24512 177.65227"
   id="svg2"
   inkscape:version="0.48.4 r9939"
   sodipodi:docname="head.svg">
  <metadata
     id="metadata26">
    <rdf:RDF>
      <cc:Work
         rdf:about="">
        <dc:format>image/svg+xml</dc:format>
        <dc:type
           rdf:resource="http://purl.org/dc/dcmitype/StillImage" />
      </cc:Work>
    </rdf:RDF>
  </metadata>
  <sodipodi:namedview
     pagecolor="#ffffff"
     bordercolor="#666666"
     borderopacity="1"
     objecttolerance="10"
     gridtolerance="10"
     guidetolerance="10"
     inkscape:pageopacity="0"
     inkscape:pageshadow="2"
     inkscape:window-width="640"
     inkscape:window-height="480"
     id="namedview24"
     showgrid="false"
     fit-margin-top="0"
     fit-margin-left="0"
     fit-margin-right="0"
     fit-margin-bottom="0"
     inkscape:zoom="0.59"
     inkscape:cx="115.77511"
     inkscape:cy="70.25"
     inkscape:window-x="0"
     inkscape:window-y="24"
     inkscape:window-maximized="0"
     inkscape:current-layer="svg2" />
  <defs
     id="defs4">
    <g
       id="Layer4_0_FILL">
      <path
         d="m -69.1,-193.85 -0.05,-0.05 -1.8,0.5 1.85,-0.45 z"
         id="path7"
         inkscape:connector-curvature="0"
         style="fill:#000000;stroke:none" />
      <path
         d="m -165.25,-127.25 q 0.29766,1.26934 0.7,2.5 1.35,3.85 3.5,7.45 0.5,0.8 0.95,1.65 0.4,0 0.75,0 1.4,0.15 1.85,1.5 l -0.2,0.85 -0.4,0.35 0.35,0.45 q 1.9,2.3 4.25,4.2 0.5,0.4 1.05,0.8 2.54023,1.4418 5.65,1.1 0.6,2.25 1.15,4.55 0.5,1.9 0.95,3.85 1,2.9 1.95,6.85 1.2,5.15 1.85,7.7 0.4,2 0.75,3.9 1.45,4.3 3.6,8.3 0.15,0.3 0.35,0.6 5.8,7.85 15.65,9.5 l 1.15,0 q 6.9,1.4 11,2.45 l 9,1.05 q 3.15,0.3 6.3,0.6 2.6,0 5.2,-0.15 l 0.1,0 q 1.4,-0.1 2.85,-0.25 1.1,-0.15 2.15,-0.85 6.6,-4.65 5.9,-12.95 l 0,-0.05 q -0.3,-5.55 -1.05,-11.05 -0.6,-4.1 -0.1,-8 0.45,-3.95 1.95,-7.7 4.4,-0.55 8.3,-2.2 1.15,-0.5 2.3,-1.1 0.05,0 0.1,-0.05 0.05,0 0.1,-0.05 1,-0.55 1.95,-1.15 1.15,-0.8 1.5,-2.4 1.2,-5.25 0.4,-10.75 -0.8,-5.75 -1.55,-11.5 -2.2,-17.65 -2.15,-35.3 0.05,-16.1 -3.95,-31.3 l -1.85,0.45 q 1.55,5.5 1.65,11.5 0.25,16.5 1.25,33.05 0.65,10.8 1.85,21.6 0.95,8 2.15,15.9 0.2,1.4 0.05,2.65 0,1.95 -0.7,3.5 -0.6,1.25 -1.6,2 -1,0.65 -2.45,0.8 -1.3,0.1 -7.55,1.95 l -0.2,0.1 q -0.45,0.25 -0.85,0.5 -0.45,0.3 -0.85,0.65 -0.15,0.1 -0.25,0.25 -0.25,2.05 -0.65,5.35 -0.25,1.7 -0.4,3.05 -0.55,4.25 -0.55,4.5 -0.1,1.8 -0.25,6.45 0.95,4.15 0.6,8.35 -0.35,3.4 -1.7,6.75 -0.75,1.8 -2.25,3.15 -1.9,1.75 -4.35,1.85 -5.7,-0.4 -11.4,-1.05 -1.55,-0.05 -3.05,-0.05 -2.8,0.05 -5.4,-0.2 -2.9,-0.25 -5.55,-0.8 l -0.05,0 q -2.15,-0.5 -4.15,-1.15 -11.35,-3.75 -18.35,-14.1 -2.85,-8.3 -4.5,-17 -1.3,-7.05 -3.75,-13.65 -0.7,-0.25 -1.45,-0.5 -0.15,-0.1 -0.35,-0.15 -1.75,-0.75 -3.4,-1.9 -0.18242,-0.0695 -0.35,-0.15 -5.15,-2.85 -8.1,-8.05 -1.85,-3.2 -3.35,-6.6 -0.009,-0.0996 -0.05,-0.2 -0.45,-1.1 -0.75,-2.2 -5.5,-20.5 13.9,-23.95 3.2,-0.6 6.15,1.35 -8.45,-10.95 -18.4,0.7 -8,9.35 -4.9,21.9 m -28.55,14.65 -3.5,0 3.55,0.1 -0.05,-0.1 m 107.75,-107.75 q -15.8,-11.05 -35,-13.15 -17.25,-2.3 -34.55,-0.2 -20.3,2.8 -36.25,15.45 -15.35,12.1 -21.35,30.6 -5.95,18.35 -0.75,36.95 0.55,1.95 1.15,3.85 4.70605,12.38477 10.35,24.45 l 3.45,6.9 3.65,-0.1 -4.45,-8.35 q -4.69336,-9.34902 -8.35,-19.1 -0.75,-1.9 -1.35,-3.8 -2.35,-7.95 -3.35,-16.35 -2.3,-19.45 8.1,-36.15 9.85,-15.85 26.75,-24.15 17.3,-8.5 36.6,-8.6 19.7,-0.15 38.25,5.85 18,5.95 27.65,22.2 3,5.1 4.55,10.65 l 1.8,-0.5 q -0.8,-2.95 -1.7,-5.8 -4.15,-12.85 -15.2,-20.65 z"
         id="path9"
         inkscape:connector-curvature="0"
         style="fill:#c29741;stroke:none" />
      <path
         d="m -193.8,-112.6 0.05,0.1 36,0 -0.35,-0.45 q -0.2,0.1 -0.4,0.25 -0.25,0 -0.5,0.05 l -34.8,0.05 m 90.65,-113.65 q -18.55,-6 -38.25,-5.85 -19.3,0.1 -36.6,8.6 -16.9,8.3 -26.75,24.15 -10.4,16.7 -8.1,36.15 1,8.4 3.35,16.35 0.6,1.9 1.35,3.8 3.65664,9.75098 8.35,19.1 l 4.45,8.35 35.25,-0.05 q -0.45,-0.85 -0.95,-1.65 -2.15,-3.6 -3.5,-7.45 -0.40234,-1.23066 -0.7,-2.5 -3.1,-12.55 4.9,-21.9 9.95,-11.65 18.4,-0.7 -2.95,-1.95 -6.15,-1.35 -19.4,3.45 -13.9,23.95 0.3,1.1 0.75,2.2 0.0406,0.10039 0.05,0.2 1.5,3.4 3.35,6.6 2.95,5.2 8.1,8.05 0.16758,0.0805 0.35,0.15 1.65,1.15 3.4,1.9 0.2,0.05 0.35,0.15 0.75,0.25 1.45,0.5 2.45,6.6 3.75,13.65 1.65,8.7 4.5,17 7,10.35 18.35,14.1 2,0.65 4.15,1.15 l 0.05,0 q 2.65,0.55 5.55,0.8 2.6,0.25 5.4,0.2 1.5,0 3.05,0.05 5.7,0.65 11.4,1.05 2.45,-0.1 4.35,-1.85 1.5,-1.35 2.25,-3.15 1.35,-3.35 1.7,-6.75 0.35,-4.2 -0.6,-8.35 0.15,-4.65 0.25,-6.45 0,-0.25 0.55,-4.5 0.15,-1.35 0.4,-3.05 0.4,-3.3 0.65,-5.35 0.1,-0.15 0.25,-0.25 0.4,-0.35 0.85,-0.65 0.4,-0.25 0.85,-0.5 l 0.2,-0.1 q 6.25,-1.85 7.55,-1.95 1.45,-0.15 2.45,-0.8 1,-0.75 1.6,-2 0.7,-1.55 0.7,-3.5 0.15,-1.25 -0.05,-2.65 -1.2,-7.9 -2.15,-15.9 -1.2,-10.8 -1.85,-21.6 -1,-16.55 -1.25,-33.05 -0.1,-6 -1.65,-11.5 -1.55,-5.55 -4.55,-10.65 -9.65,-16.25 -27.65,-22.2 z"
         id="path11"
         inkscape:connector-curvature="0"
         style="fill:#d1b172;stroke:none" />
      <path
         d="m -199,-115.5 1.7,2.9 3.5,0 34.8,-0.05 q 0.25,-0.05 0.5,-0.05 0.2,-0.15 0.4,-0.25 l 0.4,-0.35 0.2,-0.85 q -0.45,-1.35 -1.85,-1.5 -0.35,0 -0.75,0 l -35.25,0.05 -3.65,0.1 z"
         id="path13"
         inkscape:connector-curvature="0"
         style="fill:#b69a43;stroke:none" />
    </g>
    <path
       id="Layer0_0_1_STROKES"
       d="m 1308.9,851.4 -1455.35,0 0,-1184.05 1455.35,0 0,1184.05 z"
       inkscape:connector-curvature="0"
       style="fill:none;stroke:#666666;stroke-width:3;stroke-linecap:round;stroke-linejoin:round" />
  </defs>
  <g
     transform="translate(216.37511,234.70227)"
     id="g16">
    <use
       xlink:href="#Layer4_0_FILL"
       id="use18"
       x="0"
       y="0"
       width="550"
       height="400" />
  </g>
  <g
     id="g20"
     transform="translate(-159.22489,-92.597727)">
    <use
       xlink:href="#Layer0_0_1_STROKES"
       id="use22"
       x="0"
       y="0"
       width="550"
       height="400" />
  </g>
</svg>
