<?xml version="1.0" encoding="UTF-8" standalone="no"?>
<svg
   xmlns:dc="http://purl.org/dc/elements/1.1/"
   xmlns:cc="http://creativecommons.org/ns#"
   xmlns:rdf="http://www.w3.org/1999/02/22-rdf-syntax-ns#"
   xmlns:svg="http://www.w3.org/2000/svg"
   xmlns="http://www.w3.org/2000/svg"
   xmlns:xlink="http://www.w3.org/1999/xlink"
   xmlns:sodipodi="http://sodipodi.sourceforge.net/DTD/sodipodi-0.dtd"
   xmlns:inkscape="http://www.inkscape.org/namespaces/inkscape"
   version="1.1"
   preserveAspectRatio="none"
   x="0px"
   y="0px"
   width="264.29172"
   height="95.83239"
   viewBox="0 0 264.29172 95.83239"
   id="svg2"
   inkscape:version="0.48.4 r9939"
   sodipodi:docname="lower-leg.svg">
  <metadata
     id="metadata24">
    <rdf:RDF>
      <cc:Work
         rdf:about="">
        <dc:format>image/svg+xml</dc:format>
        <dc:type
           rdf:resource="http://purl.org/dc/dcmitype/StillImage" />
      </cc:Work>
    </rdf:RDF>
  </metadata>
  <sodipodi:namedview
     pagecolor="#ffffff"
     bordercolor="#666666"
     borderopacity="1"
     objecttolerance="10"
     gridtolerance="10"
     guidetolerance="10"
     inkscape:pageopacity="0"
     inkscape:pageshadow="2"
     inkscape:window-width="640"
     inkscape:window-height="480"
     id="namedview22"
     showgrid="false"
     fit-margin-top="0"
     fit-margin-left="0"
     fit-margin-right="0"
     fit-margin-bottom="0"
     inkscape:zoom="0.59"
     inkscape:cx="148.48177"
     inkscape:cy="25.218892"
     inkscape:window-x="2188"
     inkscape:window-y="170"
     inkscape:window-maximized="0"
     inkscape:current-layer="svg2" />
  <defs
     id="defs4">
    <g
       id="Layer4_0_FILL">
      <path
         d="m -257.45,448.25 -2.95,0 q -0.15,7.05 -0.5,14.05 -0.6,11.2 -1.05,22.6 -0.4,10.5 -1.4,20.95 -1.52832,18.94297 -3.65,37.7 -2.05,17.7 -4.35,35.4 -0.28184,2.1541 -0.55,4.3 l -4.25,55.3 3.15,27.8 q 0.0742,1.18633 0.1,2.35 l 0,-2.35 q 0.05,-8.3 0.15,-16.6 0.3,-33.3 3.85,-66.5 1.59629,-12.43438 3.1,-24.9 2.2,-17.7 4.1,-35.3 0.91211,-8.6 1.6,-17.2 0.6,-7.4 1.1,-14.7 0.7,-10.35 1,-20.65 0.3,-11.1 0.55,-22.25 m -90.2,24.8 -0.6,-0.1 q -1.3,6.65 -2.35,13.45 -1.55,9.65 -2.4,19.45 -1.64316,27.14844 2.85,54.15 2.1,12.6 4.55,25.1 3.15,15.05 6.25,30.2 0.22773,1.12383 0.45,2.25 6.25,35.25 10.05,70.7 1,9.05 1.9,18.15 l 2.7,0 q -2.95,-35.55 -8.6,-70.6 -1.45,-9.15 -3.05,-18.25 -0.79297,-4.22031 -1.6,-8.35 -0.9,-4.35 -1.85,-8.75 -1.6,-7.55 -3.2,-15.15 -3.05,-15.4 -5.25,-31.05 -2.35,-16.65 -2.25,-33.3 0.066,-7.58867 0.7,-15.1 1.25,-11.8 3.5,-23.5 1.9,-9.85 3.45,-19.65 -0.95,5.3 -4.3,9.3 -0.45,0.55 -0.95,1.05 m 7.15,-22.7 -1.4,3.75 1.3,-2.95 0.15,-1 -0.05,0.2 z"
         id="path7"
         inkscape:connector-curvature="0"
         style="fill:#c29741;stroke:none" />
      <path
         d="m -324.25,706.4 -2.7,0 3.45,3 51.05,-0.65 1.5,-0.95 -1.95,-39.1 q -0.0258,-1.16367 -0.1,-2.35 l -3.15,-27.8 -1.4,1.05 3.55,66.8 -50.25,0 m -18.15,-243.7 6.4,-14.45 75.6,0 2.95,0 -1.05,-3 -78.5,0 q -0.45,0.2 -0.9,0.45 -0.65,0.45 -0.9,1.35 l -1.8,4.1 -1.3,2.95 -3.2,7.3 -3.15,11.55 0.6,0.1 q 0.5,-0.5 0.95,-1.05 3.35,-4 4.3,-9.3 z"
         id="path9"
         inkscape:connector-curvature="0"
         style="fill:#b69a43;stroke:none" />
      <path
         d="m -338.8,447.05 -1.65,3.1 -0.15,1 1.8,-4.1 m -3.1,7.05 1.4,-3.75 -4.6,11.05 3.2,-7.3 m 5.9,-5.85 -6.4,14.45 q -1.55,9.8 -3.45,19.65 -2.25,11.7 -3.5,23.5 -0.63398,7.51133 -0.7,15.1 -0.1,16.65 2.25,33.3 2.2,15.65 5.25,31.05 1.6,7.6 3.2,15.15 0.95,4.4 1.85,8.75 0.80703,4.12969 1.6,8.35 1.6,9.1 3.05,18.25 5.65,35.05 8.6,70.6 l 50.25,0 -3.55,-66.8 1.4,-1.05 4.25,-55.3 q 0.26816,-2.1459 0.55,-4.3 2.3,-17.7 4.35,-35.4 2.12168,-18.75703 3.65,-37.7 1,-10.45 1.4,-20.95 0.45,-11.4 1.05,-22.6 0.35,-7 0.5,-14.05 l -75.6,0 z"
         id="path11"
         inkscape:connector-curvature="0"
         style="fill:#d1b172;stroke:none" />
    </g>
    <path
       id="Layer0_0_1_STROKES"
       d="m 1308.9,851.4 -1455.35,0 0,-1184.05 1455.35,0 0,1184.05 z"
       inkscape:connector-curvature="0"
       style="fill:none;stroke:#666666;stroke-width:3;stroke-linecap:round;stroke-linejoin:round" />
  </defs>
  <g
     transform="matrix(-0.00218993,-0.9999976,0.9999976,-0.00218993,-445.81503,-256.46775)"
     id="g14">
    <use
       xlink:href="#Layer4_0_FILL"
       id="use16"
       x="0"
       y="0"
       width="550"
       height="400" />
  </g>
  <g
     id="g18"
     transform="translate(-139.67751,-151.06278)">
    <use
       xlink:href="#Layer0_0_1_STROKES"
       id="use20"
       x="0"
       y="0"
       width="550"
       height="400" />
  </g>
</svg>
