<?xml version="1.0" encoding="UTF-8" standalone="no"?>
<svg
   xmlns:dc="http://purl.org/dc/elements/1.1/"
   xmlns:cc="http://creativecommons.org/ns#"
   xmlns:rdf="http://www.w3.org/1999/02/22-rdf-syntax-ns#"
   xmlns:svg="http://www.w3.org/2000/svg"
   xmlns="http://www.w3.org/2000/svg"
   xmlns:xlink="http://www.w3.org/1999/xlink"
   xmlns:sodipodi="http://sodipodi.sourceforge.net/DTD/sodipodi-0.dtd"
   xmlns:inkscape="http://www.inkscape.org/namespaces/inkscape"
   version="1.1"
   preserveAspectRatio="none"
   x="0px"
   y="0px"
   width="71.729317"
   height="127.54986"
   viewBox="0 0 71.729317 127.54986"
   id="svg2"
   inkscape:version="0.48.4 r9939"
   sodipodi:docname="lower-arm.svg">
  <metadata
     id="metadata24">
    <rdf:RDF>
      <cc:Work
         rdf:about="">
        <dc:format>image/svg+xml</dc:format>
        <dc:type
           rdf:resource="http://purl.org/dc/dcmitype/StillImage" />
      </cc:Work>
    </rdf:RDF>
  </metadata>
  <sodipodi:namedview
     pagecolor="#ffffff"
     bordercolor="#666666"
     borderopacity="1"
     objecttolerance="10"
     gridtolerance="10"
     guidetolerance="10"
     inkscape:pageopacity="0"
     inkscape:pageshadow="2"
     inkscape:window-width="640"
     inkscape:window-height="480"
     id="namedview22"
     showgrid="false"
     fit-margin-top="0"
     fit-margin-left="0"
     fit-margin-right="0"
     fit-margin-bottom="0"
     inkscape:zoom="1.668772"
     inkscape:cx="26.626217"
     inkscape:cy="59.956797"
     inkscape:window-x="0"
     inkscape:window-y="24"
     inkscape:window-maximized="0"
     inkscape:current-layer="svg2" />
  <defs
     id="defs4">
    <g
       id="Layer1_0_FILL">
      <path
         d="m -847.8,100.05 q 0.0256,0.12793 0,0.25 l 3.05,0 q 0.009,-0.333398 0.05,-0.7 0.0178,-0.308203 0,-0.65 -0.0697,0.376367 -0.35,0.65 -0.43398,0.44473 -1.05,0.45 l -1.7,0 m 8.2,-136.5 q -1,0 -2,0 l 3.15,16.55 q 0.15,1.7 0.3,3.5 0.3,4 0.45,8.25 0.18965,8.74980469 -0.6,18.85 -0.62109,8.541992 -1.95,18.05 -4.58457,32.321289 -6,48.5 -0.10039,1.466406 -0.2,2.8 -0.66641,9.870508 -1.15,17 l 1.5,0 q 0.61602,0.0053 1.05,0.45 0.34785,0.339453 0.4,0.8 0.47012,-7.427344 1.25,-17.75 0.11094,-1.562305 0.25,-3.3 1.37734,-16.280078 5.85,-47.95 1.4166,-9.823047 2.05,-18.6 0.79102,-10.12050781 0.55,-18.85 -0.1,-4.9 -0.55,-9.6 -0.25,-2.55 -0.55,-4.95 -0.21387,-2.150977 -0.55,-4.25 -0.15,-1.05 -0.3,-2.1 -0.6,-4 -1.95,-7.8 -0.5,0.2 -1,0.4 m -63.6,1.7 q -1.2,3.95 -1.8,7.8 -0.29141,2.050977 -0.5,4.15 -0.3,2.4 -0.55,4.95 -0.45,4.7 -0.55,9.6 -0.24219,8.77246094 0.5,18.95 0.69141,8.732812 2.1,18.5 4.48633,31.767188 5.85,48.05 0.14238,1.682812 0.25,3.2 0.85,11.25 1.3,19.05 0.0469,0.42207 0.05,0.8 l 3,0 q 0.0266,-0.12188 0,-0.25 l -1.55,0 q -0.61602,-0.005 -1.05,-0.45 -0.44473,-0.433984 -0.45,-1.05 0.005,-0.616016 0.45,-1.05 0.43398,-0.444727 1.05,-0.45 l 1.35,0 q -0.42891,-7.159766 -1.1,-17.1 -0.0963,-1.287891 -0.25,-2.7 -1.35117,-16.178711 -5.95,-48.6 -1.32109,-9.452344 -2,-17.95 -0.74062,-10.15683594 -0.55,-18.95 0.15,-4.25 0.45,-8.25 0.15,-1.8 0.3,-3.5 l 3.1,-16.6 -2.9,-0.1 q -0.25,1 -0.55,1.95 z"
         id="path7"
         inkscape:connector-curvature="0"
         style="fill:#c29741;stroke:none" />
      <path
         d="m -893.55,100.05 q 0.0266,0.12812 0,0.25 l 45.75,0 q 0.0256,-0.12207 0,-0.25 l -45.75,0 m -9.6,-116.55 q -0.3,4 -0.45,8.25 -0.19062,8.79316406 0.55,18.95 0.67891,8.497656 2,17.95 4.59883,32.421289 5.95,48.6 0.15371,1.412109 0.25,2.7 0.67109,9.940234 1.1,17.1 l 46.15,0 q 0.48359,-7.129492 1.15,-17 0.0996,-1.333594 0.2,-2.8 1.41543,-16.178711 6,-48.5 1.32891,-9.508008 1.95,-18.05 0.78965,-10.10019531 0.6,-18.85 -0.15,-4.25 -0.45,-8.25 -0.15,-1.8 -0.3,-3.5 l -3.15,-16.55 -58.15,-0.15 -3.1,16.6 q -0.15,1.7 -0.3,3.5 z"
         id="path9"
         inkscape:connector-curvature="0"
         style="fill:#d1b172;stroke:none" />
      <path
         d="m -846.1,97.05 -1.5,0 -46.15,0 -1.35,0 q -0.61602,0.0053 -1.05,0.45 -0.44473,0.433984 -0.45,1.05 0.005,0.616016 0.45,1.05 0.43398,0.44473 1.05,0.45 l 1.55,0 45.75,0 1.7,0 q 0.61602,-0.005 1.05,-0.45 0.28027,-0.273633 0.35,-0.65 0.0981,-0.172266 0.1,-0.4 -10e-4,-0.13418 -0.05,-0.25 -0.0521,-0.460547 -0.4,-0.8 -0.43398,-0.444727 -1.05,-0.45 m -54.95,-136.65 -1.6,2.9 2.9,0.1 58.15,0.15 q 1,0 2,0 0.5,-0.2 1,-0.4 l -1.55,-2.6 -60.9,-0.15 z"
         id="path11"
         inkscape:connector-curvature="0"
         style="fill:#b69a43;stroke:none" />
    </g>
    <path
       id="Layer0_0_1_STROKES"
       d="m 1308.9,851.4 -1455.35,0 0,-1184.05 1455.35,0 0,1184.05 z"
       inkscape:connector-curvature="0"
       style="fill:none;stroke:#666666;stroke-width:3;stroke-linecap:round;stroke-linejoin:round" />
  </defs>
  <g
     transform="matrix(0.99590195,0.00742574,-0.00677543,0.90873333,902.92191,42.676803)"
     id="g14">
    <use
       xlink:href="#Layer1_0_FILL"
       id="use16"
       x="0"
       y="0"
       width="550"
       height="400" />
  </g>
  <g
     id="g18"
     transform="translate(-229.42021,-151.54924)">
    <use
       xlink:href="#Layer0_0_1_STROKES"
       id="use20"
       x="0"
       y="0"
       width="550"
       height="400" />
  </g>
</svg>
