<?xml version="1.0" encoding="UTF-8" standalone="no"?>
<svg
   xmlns:dc="http://purl.org/dc/elements/1.1/"
   xmlns:cc="http://creativecommons.org/ns#"
   xmlns:rdf="http://www.w3.org/1999/02/22-rdf-syntax-ns#"
   xmlns:svg="http://www.w3.org/2000/svg"
   xmlns="http://www.w3.org/2000/svg"
   xmlns:xlink="http://www.w3.org/1999/xlink"
   xmlns:sodipodi="http://sodipodi.sourceforge.net/DTD/sodipodi-0.dtd"
   xmlns:inkscape="http://www.inkscape.org/namespaces/inkscape"
   version="1.1"
   preserveAspectRatio="none"
   x="0px"
   y="0px"
   width="262.2757"
   height="120.85289"
   viewBox="0 0 262.2757 120.85289"
   id="svg2"
   inkscape:version="0.48.4 r9939"
   sodipodi:docname="upper-leg.svg">
  <metadata
     id="metadata26">
    <rdf:RDF>
      <cc:Work
         rdf:about="">
        <dc:format>image/svg+xml</dc:format>
        <dc:type
           rdf:resource="http://purl.org/dc/dcmitype/StillImage" />
      </cc:Work>
    </rdf:RDF>
  </metadata>
  <sodipodi:namedview
     pagecolor="#ffffff"
     bordercolor="#666666"
     borderopacity="1"
     objecttolerance="10"
     gridtolerance="10"
     guidetolerance="10"
     inkscape:pageopacity="0"
     inkscape:pageshadow="2"
     inkscape:window-width="640"
     inkscape:window-height="480"
     id="namedview24"
     showgrid="false"
     fit-margin-top="0"
     fit-margin-left="0"
     fit-margin-right="0"
     fit-margin-bottom="0"
     inkscape:zoom="0.59"
     inkscape:cx="148.75195"
     inkscape:cy="54.936961"
     inkscape:window-x="2046"
     inkscape:window-y="255"
     inkscape:window-maximized="0"
     inkscape:current-layer="svg2" />
  <defs
     id="defs4">
    <g
       id="Layer4_0_FILL">
      <path
         d="m 918.3,275 q -12.5,1.35 -21.6,17.25 -9.9,17.5 -9.9,42.15 0,24.65 9.9,42.05 9.1,16.05 21.6,17.4 l 0,-1.3 0,-116.5 0,-1.05 z"
         id="path7"
         inkscape:connector-curvature="0"
         style="fill:#c8b373;stroke:none" />
      <path
         d="m 1108.3,367.4 q 0.2,-0.5 0.5,-0.9 l 36.75,-83.45 q -0.25,-1.65 -1.85,-3.55 l -0.95,2.25 -33.6,76.25 -1.35,3.05 -3.9,8.9 -0.95,2.05 q -0.25,0.6 0.05,1.1 l 0,0.05 0.05,0.05 q 1.4,-1.15 3.8,-2.4 0.2,-0.4 0.35,-0.8 1.1,-2.55 1.1,-2.6 z"
         id="path9"
         inkscape:connector-curvature="0"
         style="fill:#b69a43;stroke:none" />
      <path
         d="m 1109.15,358 q 0.1,-0.8 0.15,-1.55 l -1.5,4.6 1.35,-3.05 M 1007,385.65 q -12.1,1 -27.25,2.2 -4.7,0.4 -9.7,0.75 -16.8,1.4 -33.9,2.55 -2.9,0.25 -5.8,0.5 -6.05,0.45 -12.05,0.9 l 0,1.3 0,1.55 q 10.2,-0.8 20.4,-1.5 15.8,-1.15 31.35,-2.4 5,-0.45 9.7,-0.75 15.1,-1.2 27.25,-2.25 0.2,0 0.45,0 19.4,-1.45 38.85,-3.3 20.55,-2.3 40.7,-7.05 0.25,-0.05 0.5,-0.1 3.65,-0.9 7.2,-1.95 3.2,-0.95 6.3,-2.1 l 2,-0.85 0,-0.05 q -0.3,-0.5 -0.05,-1.1 l 0.95,-2.05 -2.85,1.05 q -3.15,1.05 -6.35,2.05 -3.55,1.05 -7.2,2 -1.2,0.3 -2.45,0.55 -18.8,4.3 -38.3,6.3 -19.55,2.3 -39.3,3.7 -0.25,0 -0.45,0.05 m 80.5,-113.8 q -11.3,-0.8 -22.65,-1.1 -20.8,-0.65 -41.45,-0.45 -8,0.05 -15.95,0.2 -0.25,0 -0.45,0.05 -11.9,0.5 -27.25,1.5 -4.7,0.2 -9.7,0.6 -20.75,1.95 -41.75,1.9 -1,0 -1.95,0 -4.1,0.3 -8.05,-0.25 l 0,0.7 0,1.05 q 0.45,0.05 0.85,0.1 3.8,0.35 7.6,0.7 1.65,0.15 3.4,0.25 19.75,1.1 39.9,-1.6 5,-0.35 9.7,-0.6 15.35,-1 27.25,-1.5 0.2,0 0.45,0 20.75,-0.7 41.55,-0.3 18.1,0.35 36.15,1.4 1.2,0.1 2.35,0.15 3.65,0.25 7.2,0.5 7.45,0.65 14.85,1.4 6.1,0.65 12.1,1.4 10.6,1.5 21.1,3.8 l 0.95,-2.25 q -0.2,-0.2 -0.4,-0.5 -3.55,-0.8 -7.05,-1.45 -13.2,-2.45 -26.7,-3.8 -4,-0.45 -8,-0.75 -3.4,-0.35 -6.85,-0.65 -3.55,-0.25 -7.2,-0.5 z"
         id="path11"
         inkscape:connector-curvature="0"
         style="fill:#c29741;stroke:none" />
      <path
         d="m 1087.5,274.65 q -1.15,-0.05 -2.35,-0.15 -18.05,-1.05 -36.15,-1.4 -20.8,-0.4 -41.55,0.3 -0.25,0 -0.45,0 -11.9,0.5 -27.25,1.5 -4.7,0.25 -9.7,0.6 -20.15,2.7 -39.9,1.6 -1.75,-0.1 -3.4,-0.25 -3.8,-0.35 -7.6,-0.7 -0.4,-0.05 -0.85,-0.1 l 0,116.5 q 6,-0.45 12.05,-0.9 2.9,-0.25 5.8,-0.5 17.1,-1.15 33.9,-2.55 5,-0.35 9.7,-0.75 15.15,-1.2 27.25,-2.2 0.2,-0.05 0.45,-0.05 19.75,-1.4 39.3,-3.7 19.5,-2 38.3,-6.3 1.25,-0.25 2.45,-0.55 3.65,-0.95 7.2,-2 3.2,-1 6.35,-2.05 l 2.85,-1.05 3.9,-8.9 1.5,-4.6 q -0.05,0.75 -0.15,1.55 l 33.6,-76.25 q -10.5,-2.3 -21.1,-3.8 -6,-0.75 -12.1,-1.4 -7.4,-0.75 -14.85,-1.4 -3.55,-0.25 -7.2,-0.5 z"
         id="path13"
         inkscape:connector-curvature="0"
         style="fill:#d1b172;stroke:none" />
    </g>
    <path
       id="Layer0_0_1_STROKES"
       d="m 1308.9,851.4 -1455.35,0 0,-1184.05 1455.35,0 0,1184.05 z"
       inkscape:connector-curvature="0"
       style="fill:none;stroke:#666666;stroke-width:3;stroke-linecap:round;stroke-linejoin:round" />
  </defs>
  <g
     transform="matrix(0.99704166,0.07686311,-0.07686311,0.99704166,-858.12927,-344.07192)"
     id="g16">
    <use
       xlink:href="#Layer4_0_FILL"
       id="use18"
       x="0"
       y="0"
       width="550"
       height="400" />
  </g>
  <g
     id="g20"
     transform="translate(-126.24805,-134.08407)">
    <use
       xlink:href="#Layer0_0_1_STROKES"
       id="use22"
       x="0"
       y="0"
       width="550"
       height="400" />
  </g>
</svg>
