<?xml version="1.0" encoding="UTF-8" standalone="no"?>
<svg
   xmlns:dc="http://purl.org/dc/elements/1.1/"
   xmlns:cc="http://creativecommons.org/ns#"
   xmlns:rdf="http://www.w3.org/1999/02/22-rdf-syntax-ns#"
   xmlns:svg="http://www.w3.org/2000/svg"
   xmlns="http://www.w3.org/2000/svg"
   xmlns:xlink="http://www.w3.org/1999/xlink"
   xmlns:sodipodi="http://sodipodi.sourceforge.net/DTD/sodipodi-0.dtd"
   xmlns:inkscape="http://www.inkscape.org/namespaces/inkscape"
   version="1.1"
   preserveAspectRatio="none"
   x="0px"
   y="0px"
   width="154.06412"
   height="134.00487"
   viewBox="0 0 154.06412 134.00487"
   id="svg2"
   inkscape:version="0.48.4 r9939"
   sodipodi:docname="hip.svg">
  <metadata
     id="metadata24">
    <rdf:RDF>
      <cc:Work
         rdf:about="">
        <dc:format>image/svg+xml</dc:format>
        <dc:type
           rdf:resource="http://purl.org/dc/dcmitype/StillImage" />
      </cc:Work>
    </rdf:RDF>
  </metadata>
  <sodipodi:namedview
     pagecolor="#ffffff"
     bordercolor="#666666"
     borderopacity="1"
     objecttolerance="10"
     gridtolerance="10"
     guidetolerance="10"
     inkscape:pageopacity="0"
     inkscape:pageshadow="2"
     inkscape:window-width="640"
     inkscape:window-height="480"
     id="namedview22"
     showgrid="false"
     fit-margin-top="0"
     fit-margin-left="0"
     fit-margin-right="0"
     fit-margin-bottom="0"
     inkscape:zoom="0.59"
     inkscape:cx="163.28827"
     inkscape:cy="2.9918392"
     inkscape:window-x="2380"
     inkscape:window-y="192"
     inkscape:window-maximized="0"
     inkscape:current-layer="svg2" />
  <defs
     id="defs4">
    <g
       id="Layer4_0_FILL">
      <path
         d="m -374.55,390.9 q -0.0625,0.4793 -0.4,0.8 -1.47402,14.31641 -0.8,28.85 0.9,19.45 8.65,37.4 7,16.05 20.9,26.4 4.25,3.15 9.2,4.3 17.45,3.9 36.15,1.85 19.55,-1.8 39.3,-3.35 8.34102,-0.60586 16.65,-1.3 0.10664,-0.24941 0.2,-0.5 0.10254,-0.57402 0.45,-0.9 34.38711,-74.08555 -3.8,-120.8 l -121.7,0 -4.8,27.25 z"
         id="path7"
         inkscape:connector-curvature="0"
         style="fill:#d1b172;stroke:none" />
      <path
         d="m -376.9,384.55 q -0.18203,2.57559 -0.45,5.1 l 1.5,-8.65 q -0.51387,1.96797 -1.05,3.55 m -0.6,6.3 q -0.11055,1.16602 -0.25,2.3 -2.4,18.95 0,37.8 2.35,18.25 11,34.5 9.45,17.85 28.05,25.7 10.4,4.45 22.05,3.25 11.3,-1.05 22.75,-1.75 17.9,-1.35 35.8,-2.8 7.2,-0.6 14.4,-1.15 0.25,0 0.5,-0.05 l 0,-0.15 q -0.0947,0.0617 -0.2,0.1 -0.57187,0.21348 -1.15,-0.05 -0.53789,-0.26621 -0.75,-0.85 -0.2125,-0.57168 0.05,-1.15 0.16895,-0.33711 0.35,-0.7 -8.30898,0.69414 -16.65,1.3 -19.75,1.55 -39.3,3.35 -18.7,2.05 -36.15,-1.85 -4.95,-1.15 -9.2,-4.3 -13.9,-10.35 -20.9,-26.4 -7.75,-17.95 -8.65,-37.4 -0.67402,-14.53359 0.8,-28.85 -0.0885,0.0961 -0.2,0.15 -0.49961,0.38262 -1.1,0.25 -0.61328,-0.0867 -1,-0.6 -0.18379,-0.2916 -0.25,-0.65 z"
         id="path9"
         inkscape:connector-curvature="0"
         style="fill:#c29741;stroke:none" />
      <path
         d="m -244.6,362.85 q -0.83984,-0.88242 -1.95,-2.2 l -124.95,0 q -0.83145,2.56191 -1.5,4.3 l -2.85,16.05 -1.5,8.65 -0.15,0.75 q -0.0197,0.25 0,0.45 0.0662,0.3584 0.25,0.65 0.38672,0.51328 1,0.6 0.60039,0.13262 1.1,-0.25 0.11152,-0.0539 0.2,-0.15 0.3375,-0.3207 0.4,-0.8 l 4.8,-27.25 121.7,0 q 38.18711,46.71445 3.8,120.8 -0.34746,0.32598 -0.45,0.9 -0.0934,0.25059 -0.2,0.5 -0.18105,0.36289 -0.35,0.7 -0.2625,0.57832 -0.05,1.15 0.21211,0.58379 0.75,0.85 0.57813,0.26348 1.15,0.05 0.10527,-0.0383 0.2,-0.1 0.43105,-0.21387 0.65,-0.7 0.30195,-0.62207 0.6,-1.3 0.0875,-0.0875 0.15,-0.25 35.2209,-75.38691 -2.9,-123.2 0.0678,-0.0897 0.1,-0.2 z"
         id="path11"
         inkscape:connector-curvature="0"
         style="fill:#b69a43;stroke:none" />
    </g>
    <path
       id="Layer0_0_1_STROKES"
       d="m 1308.9,851.4 -1455.35,0 0,-1184.05 1455.35,0 0,1184.05 z"
       inkscape:connector-curvature="0"
       style="fill:none;stroke:#666666;stroke-width:3;stroke-linecap:round;stroke-linejoin:round" />
  </defs>
  <g
     transform="translate(378.95,-360.65)"
     id="g14">
    <use
       xlink:href="#Layer4_0_FILL"
       id="use16"
       x="0"
       y="0"
       width="550"
       height="400" />
  </g>
  <g
     id="g18"
     transform="translate(-111.74407,-68.90932)">
    <use
       xlink:href="#Layer0_0_1_STROKES"
       id="use20"
       x="0"
       y="0"
       width="550"
       height="400" />
  </g>
</svg>
